<svg xmlns="http://www.w3.org/2000/svg" xmlns:v="https://svgstorm.com"
viewBox = "0 0 1000 1000"
width="1000"
height="1000">
<g stroke="#232323" stroke-opacity="1.00" stroke-width="0.3"><path d="
M 463.00 268.00 
C 459.32 272.31 454.93 276.07 451.00 280.00
C 443.26 289.06 434.11 298.21 425.00 306.00
C 421.35 309.65 417.90 313.67 414.00 317.00
C 395.08 335.01 375.84 352.35 356.00 369.00
C 382.43 438.51 410.43 507.61 437.00 577.00
C 465.71 576.30 497.01 578.09 525.00 579.00 C 552.99 579.91 582.15 582.82 608.98 585.02 C 635.80 587.22 661.16 594.39 686.78 597.22 C 712.39 600.05 734.28 618.58 759.92 607.92 C 785.57 597.27 775.07 565.24 766.32 545.68 C 757.57 526.11 749.87 501.42 740.92 481.08 C 731.97 460.73 723.85 437.63 715.00 417.00
C 757.89 391.28 741.92 314.76 691.00 312.00
C 686.25 311.74 679.50 313.44 675.00 312.00
C 667.97 309.75 667.32 293.58 662.98 287.02 C 658.63 280.47 656.80 268.79 652.93 261.07 C 649.06 253.36 646.37 243.40 642.98 235.02 C 639.58 226.65 636.43 216.70 632.78 208.22 C 629.12 199.75 626.45 190.76 622.78 182.22 C 619.11 173.69 616.99 165.06 611.92 157.08 C 606.84 149.10 599.06 144.83 590.02 142.98 C 580.99 141.12 568.35 143.06 561.25 149.25 C 554.14 155.43 550.58 162.27 545.25 169.25 C 539.93 176.24 534.98 182.83 529.77 189.77 C 524.56 196.71 518.69 203.53 513.25 210.25 C 507.82 216.97 502.35 223.22 496.75 229.75 C 491.15 236.29 485.21 242.13 479.77 248.77 C 474.34 255.41 468.69 261.35 463.00 268.00 Z"/>
</g>
<g stroke="#232323" stroke-opacity="1.00" stroke-width="0.3"><path d="
M 756.00 203.00 
C 741.74 199.74 735.22 216.99 730.31 228.31 C 725.39 239.62 717.21 248.40 713.33 262.33 C 709.45 276.26 734.10 282.23 739.08 269.08 C 744.05 255.92 751.29 246.07 756.70 235.70 C 762.10 225.32 772.82 206.85 756.00 203.00 Z"/>
</g>
<g stroke="#232323" stroke-opacity="1.00" stroke-width="0.3"><path d="
M 835.00 289.00 
C 823.99 286.65 814.07 297.60 804.08 301.08 C 794.08 304.55 785.53 310.96 775.08 315.08 C 764.64 319.20 767.06 339.53 778.78 340.22 C 790.49 340.91 798.22 333.27 808.77 328.77 C 819.32 324.27 826.93 319.16 837.77 314.77 C 848.61 310.38 846.51 291.46 835.00 289.00 Z"/>
</g>
<g stroke="#232323" stroke-opacity="1.00" stroke-width="0.3"><path d="
M 141.00 516.00 
C 140.81 518.86 140.71 522.15 141.00 525.00
C 143.61 536.39 149.05 548.00 153.22 558.78 C 157.40 569.55 162.03 580.24 166.22 590.78 C 170.42 601.31 175.46 612.21 187.32 615.68 C 199.19 619.15 211.95 611.12 220.25 621.75 C 228.56 632.38 238.57 632.56 249.93 637.07 C 261.29 641.58 278.85 638.74 289.98 634.98 C 301.10 631.21 311.01 626.03 321.98 621.98 C 332.94 617.92 343.15 612.91 354.31 609.31 C 365.46 605.70 375.58 599.07 386.98 595.98 C 398.37 592.88 411.23 585.87 404.77 573.23 C 398.31 560.59 396.85 552.78 391.98 541.02 C 387.10 529.27 383.78 519.14 378.98 508.02 C 374.17 496.91 371.12 486.35 366.31 475.69 C 361.49 465.04 358.03 452.57 353.77 442.23 C 349.52 431.88 345.78 419.30 340.93 410.07 C 336.08 400.84 335.99 384.10 325.22 380.78 C 314.46 377.46 302.54 389.24 292.07 392.07 C 281.61 394.91 270.17 400.86 259.69 404.69 C 249.22 408.53 238.54 413.84 228.07 418.07 C 217.60 422.31 206.04 426.52 196.08 432.08 C 186.13 437.64 179.82 445.02 173.75 454.75 C 167.69 464.49 163.62 477.97 164.00 490.00
C 151.56 492.31 141.85 503.56 141.00 516.00 Z"/>
</g>
<g stroke="#242424" stroke-opacity="1.00" stroke-width="0.3"><path d="
M 794.00 392.00 
C 778.87 390.65 772.85 411.36 784.93 417.07 C 797.00 422.78 811.42 423.68 822.98 427.02 C 834.53 430.37 852.02 438.76 857.67 423.67 C 863.32 408.58 843.85 402.80 832.22 401.78 C 820.60 400.75 805.58 393.03 794.00 392.00 Z"/>
</g>
<g stroke="#232323" stroke-opacity="1.00" stroke-width="0.3"><path d="
M 302.00 658.00 
C 310.73 670.74 318.65 683.76 327.70 696.30 C 336.75 708.84 344.29 722.12 353.25 734.75 C 362.20 747.39 370.31 760.00 379.25 772.75 C 388.18 785.51 395.72 798.11 405.23 810.77 C 414.74 823.43 419.13 836.67 432.30 847.70 C 445.48 858.72 465.84 847.68 476.92 836.92 C 488.00 826.16 502.00 822.85 511.70 808.69 C 521.39 794.54 513.26 773.80 503.30 761.70 C 493.34 749.59 487.08 735.60 477.77 723.23 C 468.46 710.86 461.26 697.17 452.25 684.75 C 443.25 672.32 434.94 658.90 426.75 646.25 C 418.57 633.59 409.49 614.05 393.22 622.22 C 376.96 630.39 363.41 633.47 347.68 640.68 C 331.94 647.89 317.53 651.02 302.00 658.00 Z"/>
</g>
</svg>