<svg xmlns="http://www.w3.org/2000/svg" xmlns:v="https://svgstorm.com"
viewBox = "0 0 200 200"
width="200"
height="200">
<g fill="currentColor" fill-opacity="1.0" stroke="currentColor" stroke-opacity="0.95" stroke-width="2"><path d="
M 150.00 105.00 
C 151.60 75.93 136.13 52.76 113.08 40.92 C 90.03 29.08 63.53 31.57 43.90 45.90 C 24.27 60.23 11.72 89.99 19.20 114.75 C 26.67 139.52 41.37 158.47 67.25 164.61 C 93.13 170.74 120.03 162.50 137.00 141.00
C 125.04 129.88 113.17 118.00 102.00 106.00
C 118.70 107.52 133.86 103.45 150.00 105.00
M 140.00 95.00 
C 118.39 94.06 98.68 97.97 77.00 97.00
C 91.60 111.78 106.10 128.26 122.00 141.00
C 96.78 166.23 52.95 157.82 35.61 127.25 C 18.27 96.68 33.21 55.83 67.08 46.94 C 100.95 38.04 135.75 59.19 140.00 95.00 Z"/>
</g>
<g fill="currentColor" fill-opacity="1.0" stroke="currentColor" stroke-opacity="0.91" stroke-width="2"><path d="
M 61.00 62.00 
C 53.40 59.43 54.06 68.52 56.00 73.00
C 49.64 71.05 41.08 78.28 41.08 84.92 C 41.08 91.56 50.23 97.51 55.00 97.00
C 57.20 102.84 55.43 109.73 56.00 116.00
C 51.20 114.63 46.61 112.87 45.00 107.00
C 42.29 108.27 41.63 109.75 39.00 110.00
C 43.25 115.92 47.86 120.40 54.00 120.00
C 56.63 124.54 51.91 134.70 61.00 132.00
C 60.55 128.05 62.02 123.54 60.00 120.00
C 80.83 123.34 78.44 91.07 60.00 94.00
C 60.00 88.33 60.00 82.67 60.00 77.00
C 63.28 78.42 66.21 79.73 68.00 84.00
C 69.82 82.07 71.22 82.39 73.00 80.00
C 68.24 75.92 65.49 71.68 60.00 73.00
C 61.92 69.75 60.62 65.66 61.00 62.00
M 56.00 77.00 
C 56.00 82.00 56.00 87.00 56.00 92.00
C 49.68 91.17 47.70 86.64 48.00 81.00
C 51.25 80.07 52.38 76.70 56.00 77.00
M 70.00 106.00 
C 69.46 111.33 66.57 115.45 60.00 116.00
C 60.00 110.33 60.00 104.67 60.00 99.00
C 64.15 99.66 67.36 104.01 70.00 106.00 Z"/>
</g>
<g fill="currentColor" fill-opacity="1.0" stroke="currentColor" stroke-opacity="0.95" stroke-width="2"><path d="
M 183.00 109.00 
C 160.22 110.17 138.69 112.57 116.00 112.00
C 130.08 129.23 147.89 145.06 164.00 161.00
C 176.89 144.96 183.74 132.88 183.00 109.00
M 173.00 120.00 
C 170.62 130.25 168.01 136.50 164.00 145.00
C 155.67 137.49 147.45 129.29 140.00 121.00
C 151.04 122.65 161.30 120.06 173.00 120.00 Z"/>
</g>
</svg>