<svg xmlns="http://www.w3.org/2000/svg" xmlns:v="https://svgstorm.com"
viewBox = "0 0 1000 1000"
width="1000"
height="1000">
<g fill="currentColor" fill-opacity="1.0" stroke="currentColor" stroke-opacity="1.00" stroke-width="2"><path d="
M 202.00 153.00 
C 203.44 149.59 206.90 142.76 210.75 137.75 C 214.61 132.75 218.86 129.28 225.23 126.23 C 231.60 123.17 240.04 122.76 248.00 123.00 C 255.96 123.24 265.62 122.89 274.00 123.00 C 282.38 123.11 291.38 122.95 300.00 123.00 C 308.62 123.05 318.30 122.98 327.00 123.00 C 335.70 123.02 344.31 122.99 353.00 123.00 C 361.69 123.01 370.32 123.00 379.00 123.00 C 387.68 123.00 396.31 123.00 405.00 123.00 C 413.69 123.00 422.29 123.00 431.00 123.00 C 439.71 123.00 448.24 123.00 457.00 123.00 C 465.76 123.00 475.24 123.00 484.00 123.00 C 492.76 123.00 501.30 123.01 510.00 123.00 C 518.70 122.99 527.34 123.01 536.00 123.00 C 544.66 122.99 553.39 123.03 562.00 123.00 C 570.61 122.97 579.48 123.06 588.00 123.00 C 596.52 122.94 605.66 123.13 614.00 123.00 C 622.34 122.87 633.14 123.28 641.00 123.00 C 648.86 122.72 654.70 125.43 659.75 130.25 C 664.81 135.07 668.09 138.69 672.75 143.25 C 677.41 147.81 681.26 151.81 685.75 156.25 C 690.24 160.69 694.33 164.85 698.75 169.25 C 703.17 173.65 707.34 177.85 711.75 182.25 C 716.17 186.64 720.85 191.37 725.25 195.75 C 729.65 200.13 733.89 204.41 738.25 208.75 C 742.60 213.10 746.92 217.43 751.25 221.75 C 755.58 226.07 759.95 230.47 764.25 234.75 C 768.55 239.03 773.00 243.54 777.25 247.75 C 781.49 251.96 786.11 256.70 790.25 260.75 C 794.38 264.81 799.39 273.63 800.00 276.00
C 797.93 260.50 780.12 249.46 769.75 238.25 C 759.38 227.04 747.62 214.93 736.00 205.00
C 721.96 193.00 710.25 177.81 696.25 165.75 C 682.25 153.70 671.37 137.23 657.00 126.00
C 653.41 123.61 649.25 122.29 645.00 122.00
C 605.88 119.34 566.22 123.00 527.00 122.00 C 487.78 121.00 448.25 122.00 409.00 122.00
C 353.00 122.00 297.00 122.00 241.00 122.00
C 221.93 122.00 206.56 134.86 202.00 153.00 Z"/>
</g>
<g fill="currentColor" fill-opacity="1.0" stroke="currentColor" stroke-opacity="1.00" stroke-width="2"><path d="
M 202.00 153.00 
C 194.92 181.14 201.88 213.07 200.00 243.00 C 198.12 272.93 200.83 304.71 200.00 335.00 C 199.17 365.29 200.34 396.59 200.00 427.00 C 199.66 457.41 200.08 488.65 200.00 519.00 C 199.92 549.35 199.88 580.92 200.00 611.00 C 200.12 641.08 199.60 673.58 200.00 703.00 C 200.40 732.42 199.04 767.08 200.00 795.00 C 200.96 822.92 192.86 853.22 216.75 870.25 C 240.65 887.27 270.94 876.94 300.00 879.00 C 329.06 881.06 362.12 878.14 392.00 879.00 C 421.88 879.86 453.82 878.76 484.00 879.00 C 514.18 879.24 545.84 879.22 576.00 879.00 C 606.16 878.78 638.21 879.82 668.00 879.00 C 697.79 878.18 731.15 880.97 759.99 878.99 C 788.83 877.02 800.84 854.55 800.00 827.00 C 799.16 799.45 800.44 764.25 800.00 735.00 C 799.56 705.75 800.33 673.00 800.00 643.00 C 799.67 613.00 800.44 581.30 800.00 551.00 C 799.56 520.70 800.83 489.37 800.00 459.00 C 799.17 428.63 801.79 397.23 800.00 367.00 C 798.21 336.77 803.99 305.90 800.00 276.00
C 799.39 273.63 794.38 264.81 790.25 260.75 C 786.11 256.70 781.49 251.96 777.25 247.75 C 773.00 243.54 768.55 239.03 764.25 234.75 C 759.95 230.47 755.58 226.07 751.25 221.75 C 746.92 217.43 742.60 213.10 738.25 208.75 C 733.89 204.41 729.65 200.13 725.25 195.75 C 720.85 191.37 716.17 186.64 711.75 182.25 C 707.34 177.85 703.17 173.65 698.75 169.25 C 694.33 164.85 690.24 160.69 685.75 156.25 C 681.26 151.81 677.41 147.81 672.75 143.25 C 668.09 138.69 664.81 135.07 659.75 130.25 C 654.70 125.43 648.86 122.72 641.00 123.00 C 633.14 123.28 622.34 122.87 614.00 123.00 C 605.66 123.13 596.52 122.94 588.00 123.00 C 579.48 123.06 570.61 122.97 562.00 123.00 C 553.39 123.03 544.66 122.99 536.00 123.00 C 527.34 123.01 518.70 122.99 510.00 123.00 C 501.30 123.01 492.76 123.00 484.00 123.00 C 475.24 123.00 465.76 123.00 457.00 123.00 C 448.24 123.00 439.71 123.00 431.00 123.00 C 422.29 123.00 413.69 123.00 405.00 123.00 C 396.31 123.00 387.68 123.00 379.00 123.00 C 370.32 123.00 361.69 123.01 353.00 123.00 C 344.31 122.99 335.70 123.02 327.00 123.00 C 318.30 122.98 308.62 123.05 300.00 123.00 C 291.38 122.95 282.38 123.11 274.00 123.00 C 265.62 122.89 255.96 123.24 248.00 123.00 C 240.04 122.76 231.60 123.17 225.23 126.23 C 218.86 129.28 214.61 132.75 210.75 137.75 C 206.90 142.76 203.44 149.59 202.00 153.00
M 241.00 161.00 
C 245.29 158.00 254.54 162.34 260.00 161.00 C 265.46 159.66 272.94 161.57 279.00 161.00 C 285.06 160.43 292.70 161.27 299.00 161.00 C 305.30 160.73 311.57 161.12 318.00 161.00 C 324.43 160.88 331.52 161.05 338.00 161.00 C 344.48 160.95 350.48 161.02 357.00 161.00 C 363.52 160.98 370.44 161.00 377.00 161.00
C 383.26 159.79 389.56 158.30 397.00 159.00 C 404.44 159.70 412.44 158.68 420.00 159.00 C 427.56 159.32 435.39 158.85 443.00 159.00 C 450.61 159.15 458.37 158.92 466.00 159.00 C 473.63 159.08 481.37 158.95 489.00 159.00 C 496.63 159.05 504.40 158.93 512.00 159.00 C 519.60 159.07 527.47 158.87 535.00 159.00 C 542.53 159.13 550.64 158.72 558.00 159.00 C 565.36 159.28 574.02 158.38 581.00 159.00 C 587.98 159.62 597.85 157.63 604.00 159.00 C 610.15 160.37 622.01 155.36 625.74 160.26 C 629.48 165.15 624.54 175.47 626.00 182.00 C 627.46 188.53 625.30 197.67 626.00 205.00 C 626.70 212.33 625.58 220.09 626.00 228.00 C 626.42 235.91 625.59 242.34 626.00 251.00 C 626.41 259.66 624.98 263.19 627.00 273.00 C 629.01 282.81 637.41 294.75 646.70 299.30 C 655.98 303.86 656.22 303.54 665.00 304.00 C 673.78 304.46 679.82 303.77 688.00 304.00 C 696.18 304.23 703.09 303.84 711.00 304.00 C 718.91 304.16 726.20 303.81 734.00 304.00 C 741.80 304.19 748.12 303.64 756.00 304.00 C 763.88 304.36 760.58 315.26 761.00 322.00 C 761.42 328.74 760.81 337.75 761.00 345.00 C 761.19 352.25 760.91 360.52 761.00 368.00 C 761.09 375.48 760.96 383.42 761.00 391.00 C 761.04 398.58 760.98 406.37 761.00 414.00 C 761.02 421.63 760.99 429.35 761.00 437.00 C 761.01 444.65 761.00 452.35 761.00 460.00 C 761.00 467.65 761.00 475.35 761.00 483.00 C 761.00 490.65 761.00 498.37 761.00 506.00 C 761.00 513.63 761.00 521.42 761.00 529.00 C 761.00 536.58 761.00 543.42 761.00 551.00 C 761.00 558.58 761.00 566.37 761.00 574.00 C 761.00 581.63 761.00 589.35 761.00 597.00 C 761.00 604.65 761.00 612.34 761.00 620.00 C 761.00 627.66 761.00 635.34 761.00 643.00 C 761.00 650.66 761.00 658.33 761.00 666.00 C 761.00 673.67 760.99 681.33 761.00 689.00 C 761.01 696.67 760.98 704.33 761.00 712.00 C 761.02 719.67 760.96 727.33 761.00 735.00 C 761.04 742.67 760.92 750.33 761.00 758.00 C 761.09 765.67 760.81 773.32 761.00 781.00 C 761.19 788.68 760.56 795.19 761.00 803.00 C 761.44 810.81 760.07 817.89 761.00 826.00 C 761.93 834.11 761.20 841.55 752.00 840.00 C 742.80 838.45 737.36 840.70 729.00 840.00 C 720.64 839.30 713.98 840.32 706.00 840.00 C 698.02 839.68 690.81 840.14 683.00 840.00 C 675.19 839.86 667.73 840.06 660.00 840.00 C 652.27 839.94 644.69 840.03 637.00 840.00 C 629.31 839.97 621.66 840.01 614.00 840.00 C 606.34 839.99 598.64 840.01 591.00 840.00 C 583.36 839.99 575.59 840.00 568.00 840.00 C 560.41 840.00 553.58 840.00 546.00 840.00 C 538.42 840.00 530.63 840.00 523.00 840.00 C 515.37 840.00 507.65 840.00 500.00 840.00 C 492.35 840.00 484.66 840.00 477.00 840.00 C 469.34 840.00 461.66 840.00 454.00 840.00 C 446.34 840.00 438.67 840.00 431.00 840.00 C 423.33 840.00 415.67 839.99 408.00 840.00 C 400.33 840.01 392.67 839.99 385.00 840.00 C 377.33 840.01 369.68 839.98 362.00 840.00 C 354.32 840.03 346.69 839.94 339.00 840.00 C 331.31 840.06 323.72 839.88 316.00 840.00 C 308.28 840.12 301.89 839.71 294.00 840.00 C 286.11 840.29 279.29 839.39 271.00 840.00 C 262.71 840.61 257.10 838.66 248.00 840.00 C 238.90 841.34 239.41 832.79 240.00 825.00 C 240.59 817.21 239.73 809.72 240.00 802.00 C 240.27 794.28 239.88 786.69 240.00 779.00 C 240.12 771.31 239.95 763.67 240.00 756.00 C 240.05 748.33 239.98 740.66 240.00 733.00 C 240.02 725.34 239.99 717.65 240.00 710.00 C 240.01 702.35 239.99 694.63 240.00 687.00 C 240.01 679.37 240.00 671.58 240.00 664.00 C 240.00 656.42 240.00 649.58 240.00 642.00 C 240.00 634.42 240.00 626.63 240.00 619.00 C 240.00 611.37 240.00 603.65 240.00 596.00 C 240.00 588.35 240.00 580.66 240.00 573.00 C 240.00 565.34 240.00 557.66 240.00 550.00 C 240.00 542.34 240.00 534.66 240.00 527.00 C 240.00 519.34 240.00 511.66 240.00 504.00 C 240.00 496.34 240.00 488.66 240.00 481.00 C 240.00 473.34 240.00 465.65 240.00 458.00 C 240.00 450.35 240.00 442.63 240.00 435.00 C 240.00 427.37 240.00 419.58 240.00 412.00 C 240.00 404.42 240.00 397.58 240.00 390.00 C 240.00 382.42 240.00 374.63 240.00 367.00 C 240.00 359.37 239.99 351.64 240.00 344.00 C 240.01 336.36 239.99 328.64 240.00 321.00 C 240.01 313.36 239.97 305.63 240.00 298.00 C 240.03 290.37 239.94 282.59 240.00 275.00 C 240.06 267.41 239.88 259.51 240.00 252.00 C 240.12 244.49 239.73 236.31 240.00 229.00 C 240.27 221.69 239.39 212.88 240.00 206.00 C 240.61 199.12 238.66 188.92 240.00 183.00 C 241.34 177.08 236.55 164.11 241.00 161.00
M 665.00 183.00 
C 673.25 189.43 681.26 198.12 688.00 206.00
C 692.71 211.51 698.33 216.54 703.00 222.00
C 711.25 230.25 719.80 238.80 728.00 247.00
C 730.23 249.23 736.29 253.73 737.75 256.25 C 739.21 258.77 748.50 264.34 747.00 267.00
C 744.83 270.84 732.60 266.85 728.00 268.00 C 723.40 269.15 713.02 267.31 708.00 268.00 C 702.98 268.70 692.34 267.30 688.00 268.00 C 683.66 268.70 669.53 267.74 671.00 266.00
C 666.81 265.18 664.44 260.87 664.00 257.00
C 663.99 256.94 663.00 257.00 663.00 257.00
C 662.86 257.09 661.28 245.66 662.00 241.00 C 662.72 236.34 661.32 226.40 662.00 221.00 C 662.68 215.60 660.90 206.29 662.00 201.00 C 663.10 195.71 659.29 185.58 663.00 182.00
C 663.26 181.75 664.00 182.00 664.00 182.00
C 664.35 182.03 664.80 182.68 665.00 183.00 Z"/>
</g>
<g fill="currentColor" fill-opacity="1.0" stroke="currentColor" stroke-opacity="1.00" stroke-width="2"><path d="
M 736.00 205.00 
C 723.13 192.13 710.62 177.21 696.75 165.25 C 682.88 153.29 672.19 136.11 657.00 126.00
C 671.37 137.23 682.25 153.70 696.25 165.75 C 710.25 177.81 721.96 193.00 736.00 205.00 Z"/>
</g>
<g fill="currentColor" fill-opacity="1.0" stroke="currentColor" stroke-opacity="1.00" stroke-width="2"><path d="
M 377.00 161.00 
C 422.33 161.00 467.67 161.00 513.00 161.00
C 529.39 159.41 549.99 158.55 567.00 160.00 C 584.01 161.45 605.49 155.56 621.00 161.00
C 622.19 161.42 623.78 160.68 625.00 161.00
C 623.70 189.83 626.73 225.89 625.00 254.00 C 623.27 282.11 636.64 304.98 666.00 306.00 C 695.36 307.02 730.10 304.40 759.00 307.00
C 763.88 311.88 758.52 324.60 760.00 332.00 C 761.48 339.40 759.31 350.82 760.00 359.00 C 760.69 367.18 759.70 376.42 760.00 385.00 C 760.30 393.58 759.86 403.22 760.00 412.00 C 760.14 420.78 759.94 430.18 760.00 439.00 C 760.06 447.82 759.97 456.14 760.00 465.00 C 760.03 473.86 759.99 483.10 760.00 492.00 C 760.01 500.90 760.00 510.12 760.00 519.00 C 760.01 527.88 760.00 536.12 760.00 545.00 C 760.00 553.88 760.00 563.09 760.00 572.00 C 760.00 580.91 760.00 590.12 760.00 599.00 C 760.00 607.88 760.01 616.12 760.00 625.00 C 759.99 633.88 760.01 643.10 760.00 652.00 C 759.99 660.90 760.03 670.14 760.00 679.00 C 759.97 687.86 760.07 696.18 760.00 705.00 C 759.93 713.82 760.14 723.22 760.00 732.00 C 759.86 740.78 760.32 750.41 760.00 759.00 C 759.68 767.59 760.74 776.80 760.00 785.00 C 759.26 793.20 761.58 804.57 760.00 812.00 C 758.42 819.43 763.95 833.05 759.00 838.00
C 753.99 843.01 740.50 837.41 733.00 839.00 C 725.50 840.59 714.36 838.29 706.00 839.00 C 697.64 839.71 687.81 838.69 679.00 839.00 C 670.19 839.31 659.98 838.85 651.00 839.00 C 642.02 839.15 633.03 838.93 624.00 839.00 C 614.97 839.07 606.10 838.97 597.00 839.00 C 587.90 839.03 578.12 838.99 569.00 839.00 C 559.88 839.01 551.09 838.99 542.00 839.00 C 532.91 839.01 524.13 839.00 515.00 839.00 C 505.87 839.00 496.13 839.00 487.00 839.00 C 477.87 839.00 469.10 839.00 460.00 839.00 C 450.90 839.00 442.13 839.00 433.00 839.00 C 423.87 839.00 414.13 839.00 405.00 839.00 C 395.87 839.00 387.10 839.00 378.00 839.00 C 368.90 839.00 360.13 839.00 351.00 839.00 C 341.87 839.00 332.14 839.00 323.00 839.00 C 313.86 839.00 305.11 839.00 296.00 839.00 C 286.89 839.00 278.17 839.00 269.00 839.00 C 259.83 839.00 250.21 839.00 241.00 839.00
C 241.00 613.00 241.00 387.00 241.00 161.00
C 236.55 164.11 241.34 177.08 240.00 183.00 C 238.66 188.92 240.61 199.12 240.00 206.00 C 239.39 212.88 240.27 221.69 240.00 229.00 C 239.73 236.31 240.12 244.49 240.00 252.00 C 239.88 259.51 240.06 267.41 240.00 275.00 C 239.94 282.59 240.03 290.37 240.00 298.00 C 239.97 305.63 240.01 313.36 240.00 321.00 C 239.99 328.64 240.01 336.36 240.00 344.00 C 239.99 351.64 240.00 359.37 240.00 367.00 C 240.00 374.63 240.00 382.42 240.00 390.00 C 240.00 397.58 240.00 404.42 240.00 412.00 C 240.00 419.58 240.00 427.37 240.00 435.00 C 240.00 442.63 240.00 450.35 240.00 458.00 C 240.00 465.65 240.00 473.34 240.00 481.00 C 240.00 488.66 240.00 496.34 240.00 504.00 C 240.00 511.66 240.00 519.34 240.00 527.00 C 240.00 534.66 240.00 542.34 240.00 550.00 C 240.00 557.66 240.00 565.34 240.00 573.00 C 240.00 580.66 240.00 588.35 240.00 596.00 C 240.00 603.65 240.00 611.37 240.00 619.00 C 240.00 626.63 240.00 634.42 240.00 642.00 C 240.00 649.58 240.00 656.42 240.00 664.00 C 240.00 671.58 240.01 679.37 240.00 687.00 C 239.99 694.63 240.01 702.35 240.00 710.00 C 239.99 717.65 240.02 725.34 240.00 733.00 C 239.98 740.66 240.05 748.33 240.00 756.00 C 239.95 763.67 240.12 771.31 240.00 779.00 C 239.88 786.69 240.27 794.28 240.00 802.00 C 239.73 809.72 240.59 817.21 240.00 825.00 C 239.41 832.79 238.90 841.34 248.00 840.00 C 257.10 838.66 262.71 840.61 271.00 840.00 C 279.29 839.39 286.11 840.29 294.00 840.00 C 301.89 839.71 308.28 840.12 316.00 840.00 C 323.72 839.88 331.31 840.06 339.00 840.00 C 346.69 839.94 354.32 840.03 362.00 840.00 C 369.68 839.98 377.33 840.01 385.00 840.00 C 392.67 839.99 400.33 840.01 408.00 840.00 C 415.67 839.99 423.33 840.00 431.00 840.00 C 438.67 840.00 446.34 840.00 454.00 840.00 C 461.66 840.00 469.34 840.00 477.00 840.00 C 484.66 840.00 492.35 840.00 500.00 840.00 C 507.65 840.00 515.37 840.00 523.00 840.00 C 530.63 840.00 538.42 840.00 546.00 840.00 C 553.58 840.00 560.41 840.00 568.00 840.00 C 575.59 840.00 583.36 839.99 591.00 840.00 C 598.64 840.01 606.34 839.99 614.00 840.00 C 621.66 840.01 629.31 839.97 637.00 840.00 C 644.69 840.03 652.27 839.94 660.00 840.00 C 667.73 840.06 675.19 839.86 683.00 840.00 C 690.81 840.14 698.02 839.68 706.00 840.00 C 713.98 840.32 720.64 839.30 729.00 840.00 C 737.36 840.70 742.80 838.45 752.00 840.00 C 761.20 841.55 761.93 834.11 761.00 826.00 C 760.07 817.89 761.44 810.81 761.00 803.00 C 760.56 795.19 761.19 788.68 761.00 781.00 C 760.81 773.32 761.09 765.67 761.00 758.00 C 760.92 750.33 761.04 742.67 761.00 735.00 C 760.96 727.33 761.02 719.67 761.00 712.00 C 760.98 704.33 761.01 696.67 761.00 689.00 C 760.99 681.33 761.00 673.67 761.00 666.00 C 761.00 658.33 761.00 650.66 761.00 643.00 C 761.00 635.34 761.00 627.66 761.00 620.00 C 761.00 612.34 761.00 604.65 761.00 597.00 C 761.00 589.35 761.00 581.63 761.00 574.00 C 761.00 566.37 761.00 558.58 761.00 551.00 C 761.00 543.42 761.00 536.58 761.00 529.00 C 761.00 521.42 761.00 513.63 761.00 506.00 C 761.00 498.37 761.00 490.65 761.00 483.00 C 761.00 475.35 761.00 467.65 761.00 460.00 C 761.00 452.35 761.01 444.65 761.00 437.00 C 760.99 429.35 761.02 421.63 761.00 414.00 C 760.98 406.37 761.04 398.58 761.00 391.00 C 760.96 383.42 761.09 375.48 761.00 368.00 C 760.91 360.52 761.19 352.25 761.00 345.00 C 760.81 337.75 761.42 328.74 761.00 322.00 C 760.58 315.26 763.88 304.36 756.00 304.00 C 748.12 303.64 741.80 304.19 734.00 304.00 C 726.20 303.81 718.91 304.16 711.00 304.00 C 703.09 303.84 696.18 304.23 688.00 304.00 C 679.82 303.77 673.78 304.46 665.00 304.00 C 656.22 303.54 655.98 303.86 646.70 299.30 C 637.41 294.75 629.01 282.81 627.00 273.00 C 624.98 263.19 626.41 259.66 626.00 251.00 C 625.59 242.34 626.42 235.91 626.00 228.00 C 625.58 220.09 626.70 212.33 626.00 205.00 C 625.30 197.67 627.46 188.53 626.00 182.00 C 624.54 175.47 629.48 165.15 625.74 160.26 C 622.01 155.36 610.15 160.37 604.00 159.00 C 597.85 157.63 587.98 159.62 581.00 159.00 C 574.02 158.38 565.36 159.28 558.00 159.00 C 550.64 158.72 542.53 159.13 535.00 159.00 C 527.47 158.87 519.60 159.07 512.00 159.00 C 504.40 158.93 496.63 159.05 489.00 159.00 C 481.37 158.95 473.63 159.08 466.00 159.00 C 458.37 158.92 450.61 159.15 443.00 159.00 C 435.39 158.85 427.56 159.32 420.00 159.00 C 412.44 158.68 404.44 159.70 397.00 159.00 C 389.56 158.30 383.26 159.79 377.00 161.00 Z"/>
</g>
<g fill="currentColor" fill-opacity="1.0" stroke="currentColor" stroke-opacity="1.00" stroke-width="2"><path d="
M 663.00 257.00 
C 661.89 244.77 662.97 232.33 663.00 220.00 C 663.03 207.67 661.89 194.32 663.00 182.00
C 659.29 185.58 663.10 195.71 662.00 201.00 C 660.90 206.29 662.68 215.60 662.00 221.00 C 661.32 226.40 662.72 236.34 662.00 241.00 C 661.28 245.66 662.86 257.09 663.00 257.00 Z"/>
</g>
<g fill="currentColor" fill-opacity="1.0" stroke="currentColor" stroke-opacity="1.00" stroke-width="2"><path d="
M 663.00 257.00 
C 663.00 257.00 663.99 256.94 664.00 257.00
C 665.11 244.77 664.03 232.34 664.00 220.00 C 663.97 207.66 665.10 194.32 664.00 182.00
C 664.00 182.00 663.26 181.75 663.00 182.00
C 661.89 194.32 663.03 207.67 663.00 220.00 C 662.97 232.33 661.89 244.77 663.00 257.00 Z"/>
</g>
<g fill="currentColor" fill-opacity="1.0" stroke="currentColor" stroke-opacity="1.00" stroke-width="2"><path d="
M 572.00 233.00 
C 555.06 229.06 535.40 234.74 518.00 233.00 C 500.60 231.26 481.47 233.70 464.00 233.00 C 446.53 232.30 428.28 233.09 411.00 233.00 C 393.72 232.91 373.75 232.57 357.00 233.00 C 340.25 233.43 318.61 231.66 303.23 233.23 C 287.85 234.80 288.56 263.99 304.00 265.00 C 319.44 266.01 341.24 264.58 358.00 265.00 C 374.76 265.42 394.74 264.89 412.00 265.00 C 429.26 265.11 447.61 265.13 465.00 265.00 C 482.39 264.87 501.78 265.45 519.00 265.00 C 536.22 264.55 555.99 266.37 572.32 264.32 C 588.65 262.28 584.56 235.92 572.00 233.00 Z"/>
</g>
<g fill="currentColor" fill-opacity="1.0" stroke="currentColor" stroke-opacity="1.00" stroke-width="2"><path d="
M 747.00 267.00 
C 738.83 266.52 729.00 267.64 721.00 267.00 C 713.00 266.36 703.46 268.28 696.00 267.00 C 688.54 265.72 677.72 270.23 672.00 266.00
C 672.00 266.00 671.48 266.09 671.00 266.00
C 669.53 267.74 683.66 268.70 688.00 268.00 C 692.34 267.30 702.98 268.70 708.00 268.00 C 713.02 267.31 723.40 269.15 728.00 268.00 C 732.60 266.85 744.83 270.84 747.00 267.00 Z"/>
</g>
<g fill="currentColor" fill-opacity="1.0" stroke="currentColor" stroke-opacity="1.00" stroke-width="2"><path d="
M 571.00 303.00 
C 552.42 299.15 530.93 304.67 512.00 303.00 C 493.07 301.33 471.79 303.62 453.00 303.00 C 434.21 302.38 413.17 302.93 395.00 303.00 C 376.83 303.07 352.70 302.23 336.00 303.00 C 319.30 303.77 294.83 296.38 293.00 318.00 C 291.17 339.62 318.45 335.23 335.00 335.00 C 351.55 334.77 374.86 335.10 393.00 335.00 C 411.14 334.90 433.24 335.04 452.00 335.00 C 470.76 334.96 491.09 335.02 510.00 335.00 C 528.91 334.98 550.32 335.00 568.99 334.99 C 587.66 334.98 586.33 306.18 571.00 303.00 Z"/>
</g>
<g fill="currentColor" fill-opacity="1.0" stroke="currentColor" stroke-opacity="1.00" stroke-width="2"><path d="
M 759.00 838.00 
C 763.95 833.05 758.42 819.43 760.00 812.00 C 761.58 804.57 759.26 793.20 760.00 785.00 C 760.74 776.80 759.68 767.59 760.00 759.00 C 760.32 750.41 759.86 740.78 760.00 732.00 C 760.14 723.22 759.93 713.82 760.00 705.00 C 760.07 696.18 759.97 687.86 760.00 679.00 C 760.03 670.14 759.99 660.90 760.00 652.00 C 760.01 643.10 759.99 633.88 760.00 625.00 C 760.01 616.12 760.00 607.88 760.00 599.00 C 760.00 590.12 760.00 580.91 760.00 572.00 C 760.00 563.09 760.00 553.88 760.00 545.00 C 760.00 536.12 760.01 527.88 760.00 519.00 C 760.00 510.12 760.01 500.90 760.00 492.00 C 759.99 483.10 760.03 473.86 760.00 465.00 C 759.97 456.14 760.06 447.82 760.00 439.00 C 759.94 430.18 760.14 420.78 760.00 412.00 C 759.86 403.22 760.30 393.58 760.00 385.00 C 759.70 376.42 760.69 367.18 760.00 359.00 C 759.31 350.82 761.48 339.40 760.00 332.00 C 758.52 324.60 763.88 311.88 759.00 307.00
C 762.38 311.83 757.39 322.97 759.00 329.00 C 760.61 335.03 758.28 343.42 759.00 350.00 C 759.72 356.58 758.68 364.15 759.00 371.00 C 759.32 377.85 758.86 384.98 759.00 392.00 C 759.14 399.02 758.93 406.93 759.00 414.00 C 759.07 421.07 758.97 427.95 759.00 435.00 C 759.03 442.05 758.99 448.94 759.00 456.00 C 759.01 463.06 758.99 469.89 759.00 477.00 C 759.01 484.11 759.00 491.89 759.00 499.00 C 759.00 506.11 759.00 512.93 759.00 520.00 C 759.00 527.07 759.00 533.93 759.00 541.00 C 759.00 548.07 759.00 554.89 759.00 562.00 C 759.00 569.11 759.00 576.89 759.00 584.00 C 759.00 591.11 759.00 597.93 759.00 605.00 C 759.00 612.07 759.00 618.93 759.00 626.00 C 759.00 633.07 759.00 639.89 759.00 647.00 C 759.00 654.11 759.01 661.89 759.00 669.00 C 758.99 676.11 759.01 682.94 759.00 690.00 C 758.99 697.06 759.03 703.95 759.00 711.00 C 758.97 718.05 759.06 724.93 759.00 732.00 C 758.94 739.07 759.13 746.99 759.00 754.00 C 758.87 761.01 759.30 768.16 759.00 775.00 C 758.70 781.84 759.67 789.45 759.00 796.00 C 758.33 802.55 760.49 811.03 759.00 817.00 C 757.51 822.97 762.29 833.30 759.00 838.00 Z"/>
</g>
<g fill="currentColor" fill-opacity="1.0" stroke="currentColor" stroke-opacity="1.00" stroke-width="2"><path d="
M 306.00 405.00 
C 332.78 407.43 360.12 403.73 387.00 405.00 C 413.88 406.27 441.09 404.05 468.00 405.00
C 456.58 405.65 443.31 402.98 431.00 404.00 C 418.69 405.02 405.36 403.37 393.00 404.00 C 380.64 404.63 367.20 403.34 355.00 404.00 C 342.80 404.66 327.64 402.90 316.00 404.00 C 304.36 405.10 292.76 401.16 294.00 388.00 C 295.24 374.84 307.54 374.29 319.00 375.00 C 330.46 375.71 345.97 374.42 358.00 375.00 C 370.03 375.58 383.92 374.17 396.00 375.00 C 408.08 375.83 422.26 373.36 434.00 375.00 C 445.74 376.64 461.19 371.52 471.00 375.00
C 458.70 369.32 440.72 375.71 427.00 374.00 C 413.28 372.29 395.96 374.34 382.00 374.00 C 368.04 373.66 351.62 373.13 338.00 374.00 C 324.38 374.87 307.79 369.49 297.25 378.25 C 286.71 387.01 295.01 402.72 306.00 405.00 Z"/>
</g>
<g fill="currentColor" fill-opacity="1.0" stroke="currentColor" stroke-opacity="1.00" stroke-width="2"><path d="
M 468.00 405.00 
C 480.37 401.50 484.25 381.12 471.00 375.00
C 461.19 371.52 445.74 376.64 434.00 375.00 C 422.26 373.36 408.08 375.83 396.00 375.00 C 383.92 374.17 370.03 375.58 358.00 375.00 C 345.97 374.42 330.46 375.71 319.00 375.00 C 307.54 374.29 295.24 374.84 294.00 388.00 C 292.76 401.16 304.36 405.10 316.00 404.00 C 327.64 402.90 342.80 404.66 355.00 404.00 C 367.20 403.34 380.64 404.63 393.00 404.00 C 405.36 403.37 418.69 405.02 431.00 404.00 C 443.31 402.98 456.58 405.65 468.00 405.00 Z"/>
</g>
<g fill="currentColor" fill-opacity="1.0" stroke="currentColor" stroke-opacity="1.00" stroke-width="2"><path d="
M 522.00 715.00 
C 529.18 718.13 523.23 735.98 525.00 743.00
C 533.39 752.38 545.51 746.86 559.00 748.00 C 572.49 749.13 567.76 728.71 569.00 720.00 C 570.25 711.30 588.42 713.75 595.77 708.77 C 603.12 703.79 613.08 701.66 619.75 694.75 C 626.42 687.84 633.06 682.51 638.08 674.08 C 643.09 665.64 645.92 655.08 647.02 645.02 C 648.12 634.97 647.92 621.35 643.92 612.08 C 639.93 602.80 636.20 596.24 628.75 589.25 C 621.30 582.26 615.43 577.27 605.70 573.31 C 595.96 569.34 588.73 565.50 577.07 563.93 C 565.41 562.35 569.14 545.48 569.00 534.00 C 568.86 522.52 569.11 507.77 569.00 496.00
C 579.02 503.71 584.65 505.28 589.01 518.99 C 593.37 532.71 609.11 523.28 623.00 527.00 C 636.89 530.72 646.36 518.37 639.77 506.23 C 633.18 494.08 631.84 488.54 623.75 479.25 C 615.66 469.96 609.86 466.56 600.25 460.75 C 590.63 454.95 580.07 451.65 569.00 450.00
C 567.19 441.29 572.32 429.67 566.92 422.08 C 561.52 414.49 549.44 421.53 541.00 419.00 C 532.56 416.47 522.14 421.33 524.00 431.00 C 525.86 440.67 525.14 451.48 516.00 452.00 C 506.86 452.53 501.30 456.06 493.70 458.70 C 486.09 461.33 481.99 465.50 475.70 469.70 C 469.40 473.89 466.19 478.79 461.75 484.75 C 457.32 490.72 454.51 496.72 451.93 503.93 C 449.35 511.14 448.49 521.95 449.00 530.00 C 449.52 538.05 450.94 546.86 454.23 553.77 C 457.52 560.68 460.91 565.61 465.75 571.25 C 470.59 576.88 475.27 580.70 481.30 584.70 C 487.33 588.69 493.96 591.58 500.92 594.08 C 507.89 596.57 516.20 600.00 524.00 600.00
C 524.00 623.33 524.00 646.67 524.00 670.00
C 514.93 669.88 510.26 664.14 503.75 658.25 C 497.24 652.36 496.05 645.37 493.92 637.08 C 491.80 628.78 475.14 632.09 468.00 632.00 C 460.86 631.91 444.40 628.72 443.00 638.00 C 441.60 647.28 445.54 656.61 448.70 664.31 C 451.85 672.00 455.88 676.84 460.75 683.25 C 465.62 689.66 471.33 692.67 477.25 697.75 C 483.17 702.83 490.06 705.06 496.93 709.07 C 503.79 713.09 514.94 711.92 522.00 715.00
M 524.00 495.00 
C 524.00 514.00 524.00 533.00 524.00 552.00
C 510.00 548.44 500.36 538.86 500.00 524.00 C 499.64 509.14 508.99 497.25 524.00 495.00
M 569.00 671.00 
C 569.00 651.00 569.00 631.00 569.00 611.00
C 584.31 612.43 597.57 625.24 597.00 641.00 C 596.43 656.76 583.80 667.96 569.00 671.00 Z"/>
</g>
</svg>