<svg xmlns="http://www.w3.org/2000/svg" xmlns:v="https://svgstorm.com"
viewBox = "0 0 1000 1000"
width="1000"
height="1000">
<g fill="currentColor" fill-opacity="1.0" stroke="currentColor" stroke-opacity="1.00" stroke-width="0.6"><path d="
M 667.00 350.00 
C 636.21 380.14 605.59 410.26 574.00 439.00
C 596.61 471.52 595.02 518.73 571.00 550.00
C 599.67 577.84 628.21 606.38 656.00 635.00
C 665.11 629.30 677.78 626.75 688.67 628.33 C 699.56 629.91 706.86 634.69 714.75 642.25 C 722.65 649.81 727.22 657.40 728.78 668.22 C 730.34 679.05 728.04 692.26 722.08 701.08 C 716.12 709.90 709.72 715.00 700.32 719.32 C 690.92 723.65 676.14 724.50 666.32 720.68 C 656.51 716.85 650.45 711.94 643.25 703.75 C 636.04 695.56 635.34 682.47 635.00 672.00 C 634.66 661.53 645.04 650.94 637.25 643.75 C 629.46 636.57 624.42 630.67 617.25 623.75 C 610.07 616.83 604.15 610.58 597.25 603.75 C 590.35 596.92 584.03 590.60 577.25 583.75 C 570.47 576.90 563.24 570.20 557.00 563.00
C 543.25 572.68 527.99 580.62 511.00 582.00
C 511.00 612.66 511.00 643.33 511.00 674.00
C 543.14 681.95 558.01 720.92 539.25 748.25 C 520.48 775.58 479.66 775.86 460.70 748.30 C 441.73 720.75 457.01 680.98 490.00 674.00
C 490.00 643.33 490.00 612.67 490.00 582.00
C 472.16 581.32 456.76 571.76 442.00 563.00
C 414.19 592.23 384.54 619.55 356.00 648.00
C 371.77 676.14 359.79 713.47 326.98 721.98 C 294.16 730.49 261.22 698.59 268.78 665.78 C 276.34 632.96 314.14 618.34 342.00 635.00
C 370.07 605.08 401.14 578.13 429.00 548.00
C 403.98 519.09 402.94 469.72 427.00 440.00
C 397.86 411.40 366.33 384.78 338.00 355.00
C 328.97 362.10 315.68 364.96 304.00 364.00 C 292.32 363.04 282.03 358.47 273.75 350.25 C 265.47 342.03 261.26 332.46 260.01 320.99 C 258.76 309.53 262.54 295.61 269.92 286.92 C 277.30 278.23 285.16 272.05 296.02 269.02 C 306.89 266.00 322.48 268.07 331.75 274.25 C 341.01 280.43 348.01 287.09 352.77 297.23 C 357.53 307.37 359.46 323.30 353.69 333.69 C 347.93 344.09 361.32 349.59 368.23 356.77 C 375.14 363.95 383.36 371.24 390.75 378.25 C 398.15 385.26 405.59 391.62 413.25 398.75 C 420.90 405.88 427.55 413.24 435.75 420.25 C 443.96 427.26 452.25 413.50 462.08 410.08 C 471.91 406.66 484.45 401.30 496.01 401.01 C 507.56 400.71 522.92 403.19 533.22 407.78 C 543.52 412.36 552.31 416.70 560.00 425.00
C 568.36 416.97 576.28 409.60 584.75 401.75 C 593.23 393.90 601.51 386.25 609.75 377.75 C 617.99 369.25 625.90 361.78 634.75 353.75 C 643.59 345.72 654.68 338.53 648.22 326.78 C 641.77 315.02 646.57 297.34 652.77 286.77 C 658.97 276.20 668.50 269.35 680.22 265.22 C 691.94 261.10 709.12 263.17 719.69 270.31 C 730.27 277.44 736.18 286.10 739.98 298.02 C 743.77 309.95 742.07 327.21 734.70 337.70 C 727.32 348.18 718.20 355.07 705.93 357.93 C 693.65 360.78 675.93 359.43 667.00 350.00 Z"/>
</g>
<g fill="currentColor" fill-opacity="0.6" stroke="currentColor" stroke-opacity="0.6" stroke-width="0.6"><path d="
M 667.00 350.00 
C 675.93 359.43 693.65 360.78 705.93 357.93 C 718.20 355.07 727.32 348.18 734.70 337.70 C 742.07 327.21 743.77 309.95 739.98 298.02 C 736.18 286.10 730.27 277.44 719.69 270.31 C 709.12 263.17 691.94 261.10 680.22 265.22 C 668.50 269.35 658.97 276.20 652.77 286.77 C 646.57 297.34 641.77 315.02 648.22 326.78 C 654.68 338.53 643.59 345.72 634.75 353.75 C 625.90 361.78 617.99 369.25 609.75 377.75 C 601.51 386.25 593.23 393.90 584.75 401.75 C 576.28 409.60 568.36 416.97 560.00 425.00
C 552.31 416.70 543.52 412.36 533.22 407.78 C 522.92 403.19 507.56 400.71 496.01 401.01 C 484.45 401.30 471.91 406.66 462.08 410.08 C 452.25 413.50 443.96 427.26 435.75 420.25 C 427.55 413.24 420.90 405.88 413.25 398.75 C 405.59 391.62 398.15 385.26 390.75 378.25 C 383.36 371.24 375.14 363.95 368.23 356.77 C 361.32 349.59 347.93 344.09 353.69 333.69 C 359.46 323.30 357.53 307.37 352.77 297.23 C 348.01 287.09 341.01 280.43 331.75 274.25 C 322.48 268.07 306.89 266.00 296.02 269.02 C 285.16 272.05 277.30 278.23 269.92 286.92 C 262.54 295.61 258.76 309.53 260.01 320.99 C 261.26 332.46 265.47 342.03 273.75 350.25 C 282.03 358.47 292.32 363.04 304.00 364.00 C 315.68 364.96 328.97 362.10 338.00 355.00
C 366.33 384.78 397.86 411.40 427.00 440.00
C 402.94 469.72 403.98 519.09 429.00 548.00
C 401.14 578.13 370.07 605.08 342.00 635.00
C 314.14 618.34 276.34 632.96 268.78 665.78 C 261.22 698.59 294.16 730.49 326.98 721.98 C 359.79 713.47 371.77 676.14 356.00 648.00
C 384.54 619.55 414.19 592.23 442.00 563.00
C 456.76 571.76 472.16 581.32 490.00 582.00
C 490.00 612.67 490.00 643.33 490.00 674.00
C 457.01 680.98 441.73 720.75 460.70 748.30 C 479.66 775.86 520.48 775.58 539.25 748.25 C 558.01 720.92 543.14 681.95 511.00 674.00
C 511.00 643.33 511.00 612.66 511.00 582.00
C 527.99 580.62 543.25 572.68 557.00 563.00
C 563.24 570.20 570.47 576.90 577.25 583.75 C 584.03 590.60 590.35 596.92 597.25 603.75 C 604.15 610.58 610.07 616.83 617.25 623.75 C 624.42 630.67 629.46 636.57 637.25 643.75 C 645.04 650.94 634.66 661.53 635.00 672.00 C 635.34 682.47 636.04 695.56 643.25 703.75 C 650.45 711.94 656.51 716.85 666.32 720.68 C 676.14 724.50 690.92 723.65 700.32 719.32 C 709.72 715.00 716.12 709.90 722.08 701.08 C 728.04 692.26 730.34 679.05 728.78 668.22 C 727.22 657.40 722.65 649.81 714.75 642.25 C 706.86 634.69 699.56 629.91 688.67 628.33 C 677.78 626.75 665.11 629.30 656.00 635.00
C 628.21 606.38 599.67 577.84 571.00 550.00
C 595.02 518.73 596.61 471.52 574.00 439.00
C 605.59 410.26 636.21 380.14 667.00 350.00 Z"/>
</g>
<g fill="currentColor" fill-opacity="1.00" stroke="None">
<path d="
M 667.00 350.00 
C 636.21 380.14 605.59 410.26 574.00 439.00
C 596.61 471.52 595.02 518.73 571.00 550.00
C 599.67 577.84 628.21 606.38 656.00 635.00
C 665.11 629.30 677.78 626.75 688.67 628.33 C 699.56 629.91 706.86 634.69 714.75 642.25 C 722.65 649.81 727.22 657.40 728.78 668.22 C 730.34 679.05 728.04 692.26 722.08 701.08 C 716.12 709.90 709.72 715.00 700.32 719.32 C 690.92 723.65 676.14 724.50 666.32 720.68 C 656.51 716.85 650.45 711.94 643.25 703.75 C 636.04 695.56 635.34 682.47 635.00 672.00 C 634.66 661.53 645.04 650.94 637.25 643.75 C 629.46 636.57 624.42 630.67 617.25 623.75 C 610.07 616.83 604.15 610.58 597.25 603.75 C 590.35 596.92 584.03 590.60 577.25 583.75 C 570.47 576.90 563.24 570.20 557.00 563.00
C 543.25 572.68 527.99 580.62 511.00 582.00
C 511.00 612.66 511.00 643.33 511.00 674.00
C 543.14 681.95 558.01 720.92 539.25 748.25 C 520.48 775.58 479.66 775.86 460.70 748.30 C 441.73 720.75 457.01 680.98 490.00 674.00
C 490.00 643.33 490.00 612.67 490.00 582.00
C 472.16 581.32 456.76 571.76 442.00 563.00
C 414.19 592.23 384.54 619.55 356.00 648.00
C 371.77 676.14 359.79 713.47 326.98 721.98 C 294.16 730.49 261.22 698.59 268.78 665.78 C 276.34 632.96 314.14 618.34 342.00 635.00
C 370.07 605.08 401.14 578.13 429.00 548.00
C 403.98 519.09 402.94 469.72 427.00 440.00
C 397.86 411.40 366.33 384.78 338.00 355.00
C 328.97 362.10 315.68 364.96 304.00 364.00 C 292.32 363.04 282.03 358.47 273.75 350.25 C 265.47 342.03 261.26 332.46 260.01 320.99 C 258.76 309.53 262.54 295.61 269.92 286.92 C 277.30 278.23 285.16 272.05 296.02 269.02 C 306.89 266.00 322.48 268.07 331.75 274.25 C 341.01 280.43 348.01 287.09 352.77 297.23 C 357.53 307.37 359.46 323.30 353.69 333.69 C 347.93 344.09 361.32 349.59 368.23 356.77 C 375.14 363.95 383.36 371.24 390.75 378.25 C 398.15 385.26 405.59 391.62 413.25 398.75 C 420.90 405.88 427.55 413.24 435.75 420.25 C 443.96 427.26 452.25 413.50 462.08 410.08 C 471.91 406.66 484.45 401.30 496.01 401.01 C 507.56 400.71 522.92 403.19 533.22 407.78 C 543.52 412.36 552.31 416.70 560.00 425.00
C 568.36 416.97 576.28 409.60 584.75 401.75 C 593.23 393.90 601.51 386.25 609.75 377.75 C 617.99 369.25 625.90 361.78 634.75 353.75 C 643.59 345.72 654.68 338.53 648.22 326.78 C 641.77 315.02 646.57 297.34 652.77 286.77 C 658.97 276.20 668.50 269.35 680.22 265.22 C 691.94 261.10 709.12 263.17 719.69 270.31 C 730.27 277.44 736.18 286.10 739.98 298.02 C 743.77 309.95 742.07 327.21 734.70 337.70 C 727.32 348.18 718.20 355.07 705.93 357.93 C 693.65 360.78 675.93 359.43 667.00 350.00 Z"/>
</g>
<g fill="currentColor" fill-opacity="0.6" stroke="None">
<path d="
M 667.00 350.00 
C 675.93 359.43 693.65 360.78 705.93 357.93 C 718.20 355.07 727.32 348.18 734.70 337.70 C 742.07 327.21 743.77 309.95 739.98 298.02 C 736.18 286.10 730.27 277.44 719.69 270.31 C 709.12 263.17 691.94 261.10 680.22 265.22 C 668.50 269.35 658.97 276.20 652.77 286.77 C 646.57 297.34 641.77 315.02 648.22 326.78 C 654.68 338.53 643.59 345.72 634.75 353.75 C 625.90 361.78 617.99 369.25 609.75 377.75 C 601.51 386.25 593.23 393.90 584.75 401.75 C 576.28 409.60 568.36 416.97 560.00 425.00
C 552.31 416.70 543.52 412.36 533.22 407.78 C 522.92 403.19 507.56 400.71 496.01 401.01 C 484.45 401.30 471.91 406.66 462.08 410.08 C 452.25 413.50 443.96 427.26 435.75 420.25 C 427.55 413.24 420.90 405.88 413.25 398.75 C 405.59 391.62 398.15 385.26 390.75 378.25 C 383.36 371.24 375.14 363.95 368.23 356.77 C 361.32 349.59 347.93 344.09 353.69 333.69 C 359.46 323.30 357.53 307.37 352.77 297.23 C 348.01 287.09 341.01 280.43 331.75 274.25 C 322.48 268.07 306.89 266.00 296.02 269.02 C 285.16 272.05 277.30 278.23 269.92 286.92 C 262.54 295.61 258.76 309.53 260.01 320.99 C 261.26 332.46 265.47 342.03 273.75 350.25 C 282.03 358.47 292.32 363.04 304.00 364.00 C 315.68 364.96 328.97 362.10 338.00 355.00
C 366.33 384.78 397.86 411.40 427.00 440.00
C 402.94 469.72 403.98 519.09 429.00 548.00
C 401.14 578.13 370.07 605.08 342.00 635.00
C 314.14 618.34 276.34 632.96 268.78 665.78 C 261.22 698.59 294.16 730.49 326.98 721.98 C 359.79 713.47 371.77 676.14 356.00 648.00
C 384.54 619.55 414.19 592.23 442.00 563.00
C 456.76 571.76 472.16 581.32 490.00 582.00
C 490.00 612.67 490.00 643.33 490.00 674.00
C 457.01 680.98 441.73 720.75 460.70 748.30 C 479.66 775.86 520.48 775.58 539.25 748.25 C 558.01 720.92 543.14 681.95 511.00 674.00
C 511.00 643.33 511.00 612.66 511.00 582.00
C 527.99 580.62 543.25 572.68 557.00 563.00
C 563.24 570.20 570.47 576.90 577.25 583.75 C 584.03 590.60 590.35 596.92 597.25 603.75 C 604.15 610.58 610.07 616.83 617.25 623.75 C 624.42 630.67 629.46 636.57 637.25 643.75 C 645.04 650.94 634.66 661.53 635.00 672.00 C 635.34 682.47 636.04 695.56 643.25 703.75 C 650.45 711.94 656.51 716.85 666.32 720.68 C 676.14 724.50 690.92 723.65 700.32 719.32 C 709.72 715.00 716.12 709.90 722.08 701.08 C 728.04 692.26 730.34 679.05 728.78 668.22 C 727.22 657.40 722.65 649.81 714.75 642.25 C 706.86 634.69 699.56 629.91 688.67 628.33 C 677.78 626.75 665.11 629.30 656.00 635.00
C 628.21 606.38 599.67 577.84 571.00 550.00
C 595.02 518.73 596.61 471.52 574.00 439.00
C 605.59 410.26 636.21 380.14 667.00 350.00 Z"/>
</g>
</svg>