<svg xmlns="http://www.w3.org/2000/svg" xmlns:v="https://svgstorm.com"
viewBox = "0 0 670 529"
width="670"
height="529">
<g fill="None" fill-opacity="0.0" stroke="#FEFEFE" stroke-opacity="1.00" stroke-width="0.3"><path d="
M 336.00 266.00 
C 332.75 262.75 329.21 259.21 326.00 256.00
C 321.69 251.69 316.94 247.61 313.00 243.00
C 307.37 236.42 300.58 230.53 295.00 224.00
C 290.69 219.69 285.94 215.61 282.00 211.00
C 275.49 203.38 267.89 194.25 260.25 203.25 C 252.61 212.24 247.17 215.99 239.75 223.75 C 232.34 231.52 226.85 237.29 219.00 244.00
C 209.09 253.91 199.64 264.91 189.00 274.00
C 179.10 282.46 170.42 292.19 160.75 300.75 C 151.09 309.31 140.08 325.58 125.31 317.69 C 110.53 309.80 112.35 291.96 121.00 281.00
C 123.66 277.63 127.05 274.95 130.00 272.00
C 135.43 265.64 141.70 259.39 148.00 254.00
C 151.65 250.35 155.10 246.33 159.00 243.00
C 185.24 220.58 206.82 192.38 233.00 170.00
C 237.64 165.36 242.04 160.24 247.00 156.00
C 254.17 149.87 264.84 138.62 274.69 144.31 C 284.55 149.99 289.00 156.76 296.75 164.25 C 304.50 171.73 311.20 178.04 318.00 186.00
C 320.99 188.99 324.27 191.81 327.00 195.00
C 331.71 200.51 337.33 205.54 342.00 211.00
C 346.64 215.64 351.76 220.04 356.00 225.00
C 367.30 238.22 375.49 222.09 385.25 213.25 C 395.01 204.40 403.71 194.27 413.25 185.25 C 422.78 176.23 431.25 166.79 440.75 157.75 C 450.25 148.72 459.11 138.45 469.00 130.00
C 472.32 126.68 475.45 123.03 479.00 120.00
C 491.31 109.48 482.11 104.09 472.75 95.25 C 463.40 86.41 454.98 75.93 467.75 67.75 C 480.51 59.56 495.60 65.38 509.00 61.00 C 522.40 56.62 537.74 58.16 551.00 55.00 C 564.26 51.84 580.04 54.54 578.07 70.07 C 576.11 85.61 573.85 97.29 572.01 112.01 C 570.17 126.73 566.76 138.25 564.67 152.67 C 562.58 167.10 545.90 169.81 537.75 160.25 C 529.60 150.68 520.52 140.89 511.75 149.75 C 502.99 158.61 495.34 164.48 487.25 173.25 C 479.16 182.01 471.26 188.96 463.25 197.25 C 455.24 205.53 447.18 213.25 439.25 221.25 C 431.32 229.25 423.06 237.54 415.25 245.25 C 407.44 252.95 398.81 262.03 391.25 269.25 C 383.68 276.47 373.07 290.84 362.00 288.00 C 350.93 285.16 343.07 274.27 336.00 266.00
M 573.00 349.00 
C 573.00 368.44 572.12 387.52 573.00 407.00 C 573.88 426.48 570.66 445.39 573.00 465.00 C 575.34 484.61 555.64 493.30 539.00 489.00 C 522.36 484.70 498.49 497.37 486.75 483.25 C 475.01 469.13 484.33 446.84 482.00 429.00 C 479.67 411.16 483.25 389.67 482.00 371.00 C 480.75 352.33 483.00 332.07 482.00 313.00 C 481.00 293.93 483.43 274.28 482.00 255.00 C 480.57 235.72 482.45 219.00 505.00 219.00
C 506.33 219.00 507.67 219.00 509.00 219.00
C 515.66 219.00 522.34 218.87 529.00 219.00
C 532.08 218.70 536.25 218.00 540.00 218.00
C 545.82 218.00 552.23 217.23 558.00 218.00
C 574.24 220.16 573.28 236.89 573.00 251.00 C 572.72 265.11 573.10 284.83 573.00 300.00 C 572.90 315.17 573.00 333.54 573.00 349.00
M 310.00 307.00 
C 316.00 309.00 320.07 314.92 321.00 321.00
C 323.52 337.54 320.05 355.24 321.00 372.00 C 321.95 388.76 321.00 406.18 321.00 423.00
C 322.52 438.73 324.83 461.55 321.00 477.00
C 319.66 482.42 318.42 485.07 313.00 487.00
C 312.77 487.29 312.34 487.84 312.00 488.00
C 301.35 492.87 281.41 487.76 270.00 489.00 C 258.59 490.24 240.75 492.19 236.03 479.97 C 231.30 467.75 234.78 452.64 234.00 439.00 C 233.22 425.36 234.29 409.97 234.00 396.00 C 233.71 382.03 234.00 367.06 234.00 353.00
C 233.06 343.24 231.99 330.69 234.00 321.00
C 235.61 313.23 238.55 309.93 246.00 307.00
C 246.43 306.83 247.50 307.00 248.00 307.00
C 258.67 307.00 269.33 307.00 280.00 307.00
C 285.04 306.51 291.28 306.00 297.00 306.00
C 301.44 306.00 305.89 305.63 310.00 307.00
M 433.00 330.00 
C 450.29 334.28 445.78 352.64 446.00 368.00 C 446.22 383.36 446.00 404.15 446.00 420.00
C 447.54 435.92 448.57 456.20 446.00 472.00
C 445.15 487.72 432.16 490.50 418.00 489.00 C 403.84 487.50 387.34 490.47 373.00 489.00
C 351.14 486.76 357.39 457.96 357.00 441.00 C 356.61 424.04 356.87 394.29 357.00 377.00 C 357.13 359.71 351.37 331.32 374.00 329.00
C 377.58 328.63 381.40 329.00 385.00 329.00
C 400.13 329.00 418.93 326.51 433.00 330.00
M 181.00 489.00 
C 177.73 489.29 174.29 489.00 171.00 489.00
C 153.88 489.00 111.34 497.68 110.00 473.00
C 107.89 460.01 109.00 444.76 109.00 431.00 C 109.00 417.24 107.90 401.92 110.00 389.00
C 110.77 374.72 122.41 371.67 135.00 372.00
C 136.00 372.03 137.00 372.00 138.00 372.00
C 141.94 372.00 146.08 372.38 150.00 372.00
C 151.75 371.83 154.59 371.05 157.00 371.00
C 172.23 370.70 198.62 366.31 198.00 387.00 C 197.38 407.69 198.46 427.72 198.00 446.00 C 197.54 464.28 203.16 487.05 181.00 489.00 Z"/>
</g>
<g fill="None" fill-opacity="0.0" stroke="#3D3D3D" stroke-opacity="1.00" stroke-width="0.3"><path d="
M 479.00 120.00 
C 475.68 123.32 472.55 126.97 469.00 130.00
C 459.11 138.45 450.25 148.72 440.75 157.75 C 431.25 166.79 422.78 176.23 413.25 185.25 C 403.71 194.27 395.01 204.40 385.25 213.25 C 375.49 222.09 367.30 238.22 356.00 225.00
C 351.37 220.37 346.24 215.96 342.00 211.00
C 337.33 205.54 331.71 200.51 327.00 195.00
C 324.01 192.01 320.73 189.19 318.00 186.00
C 311.20 178.04 304.50 171.73 296.75 164.25 C 289.00 156.76 284.55 149.99 274.69 144.31 C 264.84 138.62 254.17 149.87 247.00 156.00
C 242.37 160.63 237.96 165.76 233.00 170.00
C 206.82 192.38 185.24 220.58 159.00 243.00
C 155.35 246.65 151.90 250.67 148.00 254.00
C 141.70 259.39 135.43 265.64 130.00 272.00
C 127.26 275.21 123.78 278.00 121.00 281.00
C 112.35 291.96 110.53 309.80 125.31 317.69 C 140.08 325.58 151.09 309.31 160.75 300.75 C 170.42 292.19 179.10 282.46 189.00 274.00
C 198.91 264.09 208.36 253.09 219.00 244.00
C 226.85 237.29 232.34 231.52 239.75 223.75 C 247.17 215.99 252.61 212.24 260.25 203.25 C 267.89 194.25 275.49 203.38 282.00 211.00
C 286.31 215.31 291.06 219.39 295.00 224.00
C 300.58 230.53 307.37 236.42 313.00 243.00
C 317.25 247.25 321.79 251.79 326.00 256.00
C 329.32 259.32 332.97 262.45 336.00 266.00
C 343.07 274.27 350.93 285.16 362.00 288.00 C 373.07 290.84 383.68 276.47 391.25 269.25 C 398.81 262.03 407.44 252.95 415.25 245.25 C 423.06 237.54 431.32 229.25 439.25 221.25 C 447.18 213.25 455.24 205.53 463.25 197.25 C 471.26 188.96 479.16 182.01 487.25 173.25 C 495.34 164.48 502.99 158.61 511.75 149.75 C 520.52 140.89 529.60 150.68 537.75 160.25 C 545.90 169.81 562.58 167.10 564.67 152.67 C 566.76 138.25 570.17 126.73 572.01 112.01 C 573.85 97.29 576.11 85.61 578.07 70.07 C 580.04 54.54 564.26 51.84 551.00 55.00 C 537.74 58.16 522.40 56.62 509.00 61.00 C 495.60 65.38 480.51 59.56 467.75 67.75 C 454.98 75.93 463.40 86.41 472.75 95.25 C 482.11 104.09 491.31 109.48 479.00 120.00 Z"/>
</g>
<g fill="None" fill-opacity="0.0" stroke="#8B8B8B" stroke-opacity="1.00" stroke-width="0.3"><path d="
M 469.00 130.00 
C 472.55 126.97 475.68 123.32 479.00 120.00
C 475.45 123.03 472.32 126.68 469.00 130.00 Z"/>
</g>
<g fill="None" fill-opacity="0.0" stroke="#8E8E8E" stroke-opacity="1.00" stroke-width="0.3"><path d="
M 233.00 170.00 
C 237.96 165.76 242.37 160.63 247.00 156.00
C 242.04 160.24 237.64 165.36 233.00 170.00 Z"/>
</g>
<g fill="None" fill-opacity="0.0" stroke="#A9A9A9" stroke-opacity="1.00" stroke-width="0.3"><path d="
M 327.00 195.00 
C 324.27 191.81 320.99 188.99 318.00 186.00
C 320.73 189.19 324.01 192.01 327.00 195.00 Z"/>
</g>
<g fill="None" fill-opacity="0.0" stroke="#757575" stroke-opacity="1.00" stroke-width="0.3"><path d="
M 295.00 224.00 
C 291.06 219.39 286.31 215.31 282.00 211.00
C 285.94 215.61 290.69 219.69 295.00 224.00 Z"/>
</g>
<g fill="None" fill-opacity="0.0" stroke="#9C9C9C" stroke-opacity="1.00" stroke-width="0.3"><path d="
M 356.00 225.00 
C 351.76 220.04 346.64 215.64 342.00 211.00
C 346.24 215.96 351.37 220.37 356.00 225.00 Z"/>
</g>
<g fill="None" fill-opacity="0.0" stroke="#3D3D3D" stroke-opacity="1.00" stroke-width="0.3"><path d="
M 529.00 219.00 
C 531.33 219.05 533.67 218.96 536.00 219.00
C 528.07 220.65 516.85 220.68 509.00 219.00
C 507.67 219.00 506.33 219.00 505.00 219.00
C 501.70 220.21 492.06 219.97 487.25 226.25 C 482.43 232.52 482.77 240.48 483.00 249.00 C 483.23 257.52 482.89 268.13 483.00 277.00 C 483.11 285.87 482.95 294.97 483.00 304.00 C 483.05 313.03 482.97 322.90 483.00 332.00 C 483.03 341.10 482.98 349.89 483.00 359.00 C 483.02 368.11 482.97 377.93 483.00 387.00 C 483.03 396.07 482.94 405.04 483.00 414.00 C 483.06 422.96 482.87 433.27 483.00 442.00 C 483.13 450.73 482.71 460.84 483.00 469.00 C 483.29 477.16 486.23 483.14 493.70 486.31 C 501.16 489.47 510.61 487.69 519.00 488.00 C 527.39 488.31 538.74 487.87 547.00 488.00 C 555.26 488.13 562.24 488.26 567.75 481.75 C 573.27 475.25 571.90 466.55 572.00 458.00 C 572.10 449.45 572.01 439.88 572.00 431.00 C 571.99 422.12 572.11 411.99 572.00 403.00 C 571.89 394.01 572.29 384.99 572.00 376.00 C 571.71 367.01 572.21 357.20 573.00 349.00
C 573.00 333.54 572.90 315.17 573.00 300.00 C 573.10 284.83 572.72 265.11 573.00 251.00 C 573.28 236.89 574.24 220.16 558.00 218.00
C 552.89 217.81 545.24 218.51 540.00 218.00
C 536.25 218.00 532.08 218.70 529.00 219.00 Z"/>
</g>
<g fill="None" fill-opacity="0.0" stroke="#141414" stroke-opacity="1.00" stroke-width="0.3"><path d="
M 558.00 218.00 
C 552.23 217.23 545.82 218.00 540.00 218.00
C 545.24 218.51 552.89 217.81 558.00 218.00 Z"/>
</g>
<g fill="None" fill-opacity="0.0" stroke="#202020" stroke-opacity="1.00" stroke-width="0.3"><path d="
M 573.00 349.00 
C 572.21 357.20 571.71 367.01 572.00 376.00 C 572.29 384.99 571.89 394.01 572.00 403.00 C 572.11 411.99 571.99 422.12 572.00 431.00 C 572.01 439.88 572.10 449.45 572.00 458.00 C 571.90 466.55 573.27 475.25 567.75 481.75 C 562.24 488.26 555.26 488.13 547.00 488.00 C 538.74 487.87 527.39 488.31 519.00 488.00 C 510.61 487.69 501.16 489.47 493.70 486.31 C 486.23 483.14 483.29 477.16 483.00 469.00 C 482.71 460.84 483.13 450.73 483.00 442.00 C 482.87 433.27 483.06 422.96 483.00 414.00 C 482.94 405.04 483.03 396.07 483.00 387.00 C 482.97 377.93 483.02 368.11 483.00 359.00 C 482.98 349.89 483.03 341.10 483.00 332.00 C 482.97 322.90 483.05 313.03 483.00 304.00 C 482.95 294.97 483.11 285.87 483.00 277.00 C 482.89 268.13 483.23 257.52 483.00 249.00 C 482.77 240.48 482.43 232.52 487.25 226.25 C 492.06 219.97 501.70 220.21 505.00 219.00
C 482.45 219.00 480.57 235.72 482.00 255.00 C 483.43 274.28 481.00 293.93 482.00 313.00 C 483.00 332.07 480.75 352.33 482.00 371.00 C 483.25 389.67 479.67 411.16 482.00 429.00 C 484.33 446.84 475.01 469.13 486.75 483.25 C 498.49 497.37 522.36 484.70 539.00 489.00 C 555.64 493.30 575.34 484.61 573.00 465.00 C 570.66 445.39 573.88 426.48 573.00 407.00 C 572.12 387.52 573.00 368.44 573.00 349.00 Z"/>
</g>
<g fill="None" fill-opacity="0.0" stroke="#151515" stroke-opacity="1.00" stroke-width="0.3"><path d="
M 529.00 219.00 
C 522.34 218.87 515.66 219.00 509.00 219.00
C 516.85 220.68 528.07 220.65 536.00 219.00
C 533.67 218.96 531.33 219.05 529.00 219.00 Z"/>
</g>
<g fill="None" fill-opacity="0.0" stroke="#8A8A8A" stroke-opacity="1.00" stroke-width="0.3"><path d="
M 148.00 254.00 
C 151.90 250.67 155.35 246.65 159.00 243.00
C 155.10 246.33 151.65 250.35 148.00 254.00 Z"/>
</g>
<g fill="None" fill-opacity="0.0" stroke="#949494" stroke-opacity="1.00" stroke-width="0.3"><path d="
M 326.00 256.00 
C 321.79 251.79 317.25 247.25 313.00 243.00
C 316.94 247.61 321.69 251.69 326.00 256.00 Z"/>
</g>
<g fill="None" fill-opacity="0.0" stroke="#9F9F9F" stroke-opacity="1.00" stroke-width="0.3"><path d="
M 189.00 274.00 
C 199.64 264.91 209.09 253.91 219.00 244.00
C 208.36 253.09 198.91 264.09 189.00 274.00 Z"/>
</g>
<g fill="None" fill-opacity="0.0" stroke="#6A6A6A" stroke-opacity="1.00" stroke-width="0.3"><path d="
M 336.00 266.00 
C 332.97 262.45 329.32 259.32 326.00 256.00
C 329.21 259.21 332.75 262.75 336.00 266.00 Z"/>
</g>
<g fill="None" fill-opacity="0.0" stroke="#9A9A9A" stroke-opacity="1.00" stroke-width="0.3"><path d="
M 121.00 281.00 
C 123.78 278.00 127.26 275.21 130.00 272.00
C 127.05 274.95 123.66 277.63 121.00 281.00 Z"/>
</g>
<g fill="None" fill-opacity="0.0" stroke="#828282" stroke-opacity="1.00" stroke-width="0.3"><path d="
M 280.00 307.00 
C 285.72 307.00 292.03 306.48 297.00 306.00
C 291.28 306.00 285.04 306.51 280.00 307.00 Z"/>
</g>
<g fill="None" fill-opacity="0.0" stroke="#1E1E1E" stroke-opacity="1.00" stroke-width="0.3"><path d="
M 280.00 307.00 
C 269.33 307.00 258.67 307.00 248.00 307.00
C 256.88 310.78 269.19 306.22 279.00 308.00 C 288.81 309.78 301.09 306.03 310.00 307.00
C 305.89 305.63 301.44 306.00 297.00 306.00
C 292.03 306.48 285.72 307.00 280.00 307.00 Z"/>
</g>
<g fill="None" fill-opacity="0.0" stroke="#1D1D1D" stroke-opacity="1.00" stroke-width="0.3"><path d="
M 234.00 321.00 
C 233.05 331.47 234.00 342.48 234.00 353.00
C 234.00 367.06 233.71 382.03 234.00 396.00 C 234.29 409.97 233.22 425.36 234.00 439.00 C 234.78 452.64 231.30 467.75 236.03 479.97 C 240.75 492.19 258.59 490.24 270.00 489.00 C 281.41 487.76 301.35 492.87 312.00 488.00
C 303.12 484.63 291.87 489.42 281.00 488.00 C 270.13 486.58 259.35 489.04 247.93 487.07 C 236.50 485.11 236.03 475.64 236.00 465.00 C 235.97 454.36 234.53 443.19 235.00 432.00 C 235.47 420.81 235.13 409.37 235.00 398.00 C 234.87 386.63 235.82 375.57 235.00 364.00 C 234.18 352.43 237.05 341.92 235.00 330.00 C 232.95 318.08 239.68 313.71 246.00 307.00
C 238.55 309.93 235.61 313.23 234.00 321.00 Z"/>
</g>
<g fill="None" fill-opacity="0.0" stroke="#3D3D3D" stroke-opacity="1.00" stroke-width="0.3"><path d="
M 312.00 488.00 
C 312.34 487.84 312.77 487.29 313.00 487.00
C 323.87 473.09 320.03 454.48 320.00 436.00 C 319.97 417.52 320.93 396.67 320.00 378.00 C 319.07 359.33 322.01 338.77 321.00 321.00
C 320.07 314.92 316.00 309.00 310.00 307.00
C 301.09 306.03 288.81 309.78 279.00 308.00 C 269.19 306.22 256.88 310.78 248.00 307.00
C 247.50 307.00 246.43 306.83 246.00 307.00
C 239.68 313.71 232.95 318.08 235.00 330.00 C 237.05 341.92 234.18 352.43 235.00 364.00 C 235.82 375.57 234.87 386.63 235.00 398.00 C 235.13 409.37 235.47 420.81 235.00 432.00 C 234.53 443.19 235.97 454.36 236.00 465.00 C 236.03 475.64 236.50 485.11 247.93 487.07 C 259.35 489.04 270.13 486.58 281.00 488.00 C 291.87 489.42 303.12 484.63 312.00 488.00 Z"/>
</g>
<g fill="None" fill-opacity="0.0" stroke="#9C9C9C" stroke-opacity="1.00" stroke-width="0.3"><path d="
M 234.00 353.00 
C 234.00 342.48 233.05 331.47 234.00 321.00
C 231.99 330.69 233.06 343.24 234.00 353.00 Z"/>
</g>
<g fill="None" fill-opacity="0.0" stroke="#181818" stroke-opacity="1.00" stroke-width="0.3"><path d="
M 313.00 487.00 
C 318.42 485.07 319.66 482.42 321.00 477.00
C 323.16 459.61 321.00 440.54 321.00 423.00
C 321.00 406.18 321.95 388.76 321.00 372.00 C 320.05 355.24 323.52 337.54 321.00 321.00
C 322.01 338.77 319.07 359.33 320.00 378.00 C 320.93 396.67 319.97 417.52 320.00 436.00 C 320.03 454.48 323.87 473.09 313.00 487.00 Z"/>
</g>
<g fill="None" fill-opacity="0.0" stroke="#3D3D3D" stroke-opacity="1.00" stroke-width="0.3"><path d="
M 373.00 489.00 
C 388.49 489.09 403.52 485.64 420.00 488.00 C 436.48 490.36 446.91 480.39 445.00 464.00 C 443.09 447.61 445.94 431.74 445.00 416.00 C 444.06 400.26 445.63 381.85 445.00 367.00 C 444.37 352.15 448.65 335.78 433.00 330.00
C 418.93 326.51 400.13 329.00 385.00 329.00
C 381.87 329.30 376.91 328.98 374.00 329.00
C 351.37 331.32 357.13 359.71 357.00 377.00 C 356.87 394.29 356.61 424.04 357.00 441.00 C 357.39 457.96 351.14 486.76 373.00 489.00 Z"/>
</g>
<g fill="None" fill-opacity="0.0" stroke="#191919" stroke-opacity="1.00" stroke-width="0.3"><path d="
M 385.00 329.00 
C 381.40 329.00 377.58 328.63 374.00 329.00
C 376.91 328.98 381.87 329.30 385.00 329.00 Z"/>
</g>
<g fill="None" fill-opacity="0.0" stroke="#191919" stroke-opacity="1.00" stroke-width="0.3"><path d="
M 373.00 489.00 
C 387.34 490.47 403.84 487.50 418.00 489.00 C 432.16 490.50 445.15 487.72 446.00 472.00
C 446.93 454.78 446.00 437.25 446.00 420.00
C 446.00 404.15 446.22 383.36 446.00 368.00 C 445.78 352.64 450.29 334.28 433.00 330.00
C 448.65 335.78 444.37 352.15 445.00 367.00 C 445.63 381.85 444.06 400.26 445.00 416.00 C 445.94 431.74 443.09 447.61 445.00 464.00 C 446.91 480.39 436.48 490.36 420.00 488.00 C 403.52 485.64 388.49 489.09 373.00 489.00 Z"/>
</g>
<g fill="None" fill-opacity="0.0" stroke="#1C1C1C" stroke-opacity="1.00" stroke-width="0.3"><path d="
M 157.00 371.00 
C 173.87 372.30 198.37 368.54 197.00 391.00 C 195.63 413.46 196.92 430.52 197.00 451.00 C 197.08 471.48 198.44 490.70 173.00 487.00
C 174.64 489.59 179.43 486.34 181.00 489.00
C 203.16 487.05 197.54 464.28 198.00 446.00 C 198.46 427.72 197.38 407.69 198.00 387.00 C 198.62 366.31 172.23 370.70 157.00 371.00 Z"/>
</g>
<g fill="None" fill-opacity="0.0" stroke="#3D3D3D" stroke-opacity="1.00" stroke-width="0.3"><path d="
M 150.00 372.00 
C 150.98 372.12 152.01 371.90 153.00 372.00
C 149.07 373.60 141.86 373.70 138.00 372.00
C 137.00 372.00 136.00 372.03 135.00 372.00
C 129.08 375.02 115.40 372.38 112.70 382.70 C 109.99 393.01 110.80 404.16 111.00 415.00 C 111.20 425.84 110.18 437.38 111.00 448.00 C 111.82 458.62 108.21 470.64 112.92 480.08 C 117.64 489.51 128.49 488.25 138.00 488.00 C 147.51 487.75 161.91 488.12 171.00 489.00
C 174.29 489.00 177.73 489.29 181.00 489.00
C 179.43 486.34 174.64 489.59 173.00 487.00
C 198.44 490.70 197.08 471.48 197.00 451.00 C 196.92 430.52 195.63 413.46 197.00 391.00 C 198.37 368.54 173.87 372.30 157.00 371.00
C 154.59 371.05 151.75 371.83 150.00 372.00 Z"/>
</g>
<g fill="None" fill-opacity="0.0" stroke="#222222" stroke-opacity="1.00" stroke-width="0.3"><path d="
M 110.00 389.00 
C 108.51 416.43 108.51 445.57 110.00 473.00
C 111.34 497.68 153.88 489.00 171.00 489.00
C 161.91 488.12 147.51 487.75 138.00 488.00 C 128.49 488.25 117.64 489.51 112.92 480.08 C 108.21 470.64 111.82 458.62 111.00 448.00 C 110.18 437.38 111.20 425.84 111.00 415.00 C 110.80 404.16 109.99 393.01 112.70 382.70 C 115.40 372.38 129.08 375.02 135.00 372.00
C 122.41 371.67 110.77 374.72 110.00 389.00 Z"/>
</g>
<g fill="None" fill-opacity="0.0" stroke="#0F0F0F" stroke-opacity="1.00" stroke-width="0.3"><path d="
M 150.00 372.00 
C 146.08 372.38 141.94 372.00 138.00 372.00
C 141.86 373.70 149.07 373.60 153.00 372.00
C 152.01 371.90 150.98 372.12 150.00 372.00 Z"/>
</g>
<g fill="None" fill-opacity="0.0" stroke="#848484" stroke-opacity="1.00" stroke-width="0.3"><path d="
M 110.00 473.00 
C 108.51 445.57 108.51 416.43 110.00 389.00
C 107.90 401.92 109.00 417.24 109.00 431.00 C 109.00 444.76 107.89 460.01 110.00 473.00 Z"/>
</g>
<g fill="None" fill-opacity="0.0" stroke="#747474" stroke-opacity="1.00" stroke-width="0.3"><path d="
M 446.00 472.00 
C 448.57 456.20 447.54 435.92 446.00 420.00
C 446.00 437.25 446.93 454.78 446.00 472.00 Z"/>
</g>
<g fill="None" fill-opacity="0.0" stroke="#767676" stroke-opacity="1.00" stroke-width="0.3"><path d="
M 321.00 477.00 
C 324.83 461.55 322.52 438.73 321.00 423.00
C 321.00 440.54 323.16 459.61 321.00 477.00 Z"/>
</g>
<g fill="none" fill-opacity="0.0" stroke="None">
<path d="
M 336.00 266.00 
C 332.75 262.75 329.21 259.21 326.00 256.00
C 321.69 251.69 316.94 247.61 313.00 243.00
C 307.37 236.42 300.58 230.53 295.00 224.00
C 290.69 219.69 285.94 215.61 282.00 211.00
C 275.49 203.38 267.89 194.25 260.25 203.25 C 252.61 212.24 247.17 215.99 239.75 223.75 C 232.34 231.52 226.85 237.29 219.00 244.00
C 209.09 253.91 199.64 264.91 189.00 274.00
C 179.10 282.46 170.42 292.19 160.75 300.75 C 151.09 309.31 140.08 325.58 125.31 317.69 C 110.53 309.80 112.35 291.96 121.00 281.00
C 123.66 277.63 127.05 274.95 130.00 272.00
C 135.43 265.64 141.70 259.39 148.00 254.00
C 151.65 250.35 155.10 246.33 159.00 243.00
C 185.24 220.58 206.82 192.38 233.00 170.00
C 237.64 165.36 242.04 160.24 247.00 156.00
C 254.17 149.87 264.84 138.62 274.69 144.31 C 284.55 149.99 289.00 156.76 296.75 164.25 C 304.50 171.73 311.20 178.04 318.00 186.00
C 320.99 188.99 324.27 191.81 327.00 195.00
C 331.71 200.51 337.33 205.54 342.00 211.00
C 346.64 215.64 351.76 220.04 356.00 225.00
C 367.30 238.22 375.49 222.09 385.25 213.25 C 395.01 204.40 403.71 194.27 413.25 185.25 C 422.78 176.23 431.25 166.79 440.75 157.75 C 450.25 148.72 459.11 138.45 469.00 130.00
C 472.32 126.68 475.45 123.03 479.00 120.00
C 491.31 109.48 482.11 104.09 472.75 95.25 C 463.40 86.41 454.98 75.93 467.75 67.75 C 480.51 59.56 495.60 65.38 509.00 61.00 C 522.40 56.62 537.74 58.16 551.00 55.00 C 564.26 51.84 580.04 54.54 578.07 70.07 C 576.11 85.61 573.85 97.29 572.01 112.01 C 570.17 126.73 566.76 138.25 564.67 152.67 C 562.58 167.10 545.90 169.81 537.75 160.25 C 529.60 150.68 520.52 140.89 511.75 149.75 C 502.99 158.61 495.34 164.48 487.25 173.25 C 479.16 182.01 471.26 188.96 463.25 197.25 C 455.24 205.53 447.18 213.25 439.25 221.25 C 431.32 229.25 423.06 237.54 415.25 245.25 C 407.44 252.95 398.81 262.03 391.25 269.25 C 383.68 276.47 373.07 290.84 362.00 288.00 C 350.93 285.16 343.07 274.27 336.00 266.00
M 573.00 349.00 
C 573.00 368.44 572.12 387.52 573.00 407.00 C 573.88 426.48 570.66 445.39 573.00 465.00 C 575.34 484.61 555.64 493.30 539.00 489.00 C 522.36 484.70 498.49 497.37 486.75 483.25 C 475.01 469.13 484.33 446.84 482.00 429.00 C 479.67 411.16 483.25 389.67 482.00 371.00 C 480.75 352.33 483.00 332.07 482.00 313.00 C 481.00 293.93 483.43 274.28 482.00 255.00 C 480.57 235.72 482.45 219.00 505.00 219.00
C 506.33 219.00 507.67 219.00 509.00 219.00
C 515.66 219.00 522.34 218.87 529.00 219.00
C 532.08 218.70 536.25 218.00 540.00 218.00
C 545.82 218.00 552.23 217.23 558.00 218.00
C 574.24 220.16 573.28 236.89 573.00 251.00 C 572.72 265.11 573.10 284.83 573.00 300.00 C 572.90 315.17 573.00 333.54 573.00 349.00
M 310.00 307.00 
C 316.00 309.00 320.07 314.92 321.00 321.00
C 323.52 337.54 320.05 355.24 321.00 372.00 C 321.95 388.76 321.00 406.18 321.00 423.00
C 322.52 438.73 324.83 461.55 321.00 477.00
C 319.66 482.42 318.42 485.07 313.00 487.00
C 312.77 487.29 312.34 487.84 312.00 488.00
C 301.35 492.87 281.41 487.76 270.00 489.00 C 258.59 490.24 240.75 492.19 236.03 479.97 C 231.30 467.75 234.78 452.64 234.00 439.00 C 233.22 425.36 234.29 409.97 234.00 396.00 C 233.71 382.03 234.00 367.06 234.00 353.00
C 233.06 343.24 231.99 330.69 234.00 321.00
C 235.61 313.23 238.55 309.93 246.00 307.00
C 246.43 306.83 247.50 307.00 248.00 307.00
C 258.67 307.00 269.33 307.00 280.00 307.00
C 285.04 306.51 291.28 306.00 297.00 306.00
C 301.44 306.00 305.89 305.63 310.00 307.00
M 433.00 330.00 
C 450.29 334.28 445.78 352.64 446.00 368.00 C 446.22 383.36 446.00 404.15 446.00 420.00
C 447.54 435.92 448.57 456.20 446.00 472.00
C 445.15 487.72 432.16 490.50 418.00 489.00 C 403.84 487.50 387.34 490.47 373.00 489.00
C 351.14 486.76 357.39 457.96 357.00 441.00 C 356.61 424.04 356.87 394.29 357.00 377.00 C 357.13 359.71 351.37 331.32 374.00 329.00
C 377.58 328.63 381.40 329.00 385.00 329.00
C 400.13 329.00 418.93 326.51 433.00 330.00
M 181.00 489.00 
C 177.73 489.29 174.29 489.00 171.00 489.00
C 153.88 489.00 111.34 497.68 110.00 473.00
C 107.89 460.01 109.00 444.76 109.00 431.00 C 109.00 417.24 107.90 401.92 110.00 389.00
C 110.77 374.72 122.41 371.67 135.00 372.00
C 136.00 372.03 137.00 372.00 138.00 372.00
C 141.94 372.00 146.08 372.38 150.00 372.00
C 151.75 371.83 154.59 371.05 157.00 371.00
C 172.23 370.70 198.62 366.31 198.00 387.00 C 197.38 407.69 198.46 427.72 198.00 446.00 C 197.54 464.28 203.16 487.05 181.00 489.00 Z"/>
</g>
<g fill="#3D3D3D" fill-opacity="1.00" stroke="None">
<path d="
M 479.00 120.00 
C 475.68 123.32 472.55 126.97 469.00 130.00
C 459.11 138.45 450.25 148.72 440.75 157.75 C 431.25 166.79 422.78 176.23 413.25 185.25 C 403.71 194.27 395.01 204.40 385.25 213.25 C 375.49 222.09 367.30 238.22 356.00 225.00
C 351.37 220.37 346.24 215.96 342.00 211.00
C 337.33 205.54 331.71 200.51 327.00 195.00
C 324.01 192.01 320.73 189.19 318.00 186.00
C 311.20 178.04 304.50 171.73 296.75 164.25 C 289.00 156.76 284.55 149.99 274.69 144.31 C 264.84 138.62 254.17 149.87 247.00 156.00
C 242.37 160.63 237.96 165.76 233.00 170.00
C 206.82 192.38 185.24 220.58 159.00 243.00
C 155.35 246.65 151.90 250.67 148.00 254.00
C 141.70 259.39 135.43 265.64 130.00 272.00
C 127.26 275.21 123.78 278.00 121.00 281.00
C 112.35 291.96 110.53 309.80 125.31 317.69 C 140.08 325.58 151.09 309.31 160.75 300.75 C 170.42 292.19 179.10 282.46 189.00 274.00
C 198.91 264.09 208.36 253.09 219.00 244.00
C 226.85 237.29 232.34 231.52 239.75 223.75 C 247.17 215.99 252.61 212.24 260.25 203.25 C 267.89 194.25 275.49 203.38 282.00 211.00
C 286.31 215.31 291.06 219.39 295.00 224.00
C 300.58 230.53 307.37 236.42 313.00 243.00
C 317.25 247.25 321.79 251.79 326.00 256.00
C 329.32 259.32 332.97 262.45 336.00 266.00
C 343.07 274.27 350.93 285.16 362.00 288.00 C 373.07 290.84 383.68 276.47 391.25 269.25 C 398.81 262.03 407.44 252.95 415.25 245.25 C 423.06 237.54 431.32 229.25 439.25 221.25 C 447.18 213.25 455.24 205.53 463.25 197.25 C 471.26 188.96 479.16 182.01 487.25 173.25 C 495.34 164.48 502.99 158.61 511.75 149.75 C 520.52 140.89 529.60 150.68 537.75 160.25 C 545.90 169.81 562.58 167.10 564.67 152.67 C 566.76 138.25 570.17 126.73 572.01 112.01 C 573.85 97.29 576.11 85.61 578.07 70.07 C 580.04 54.54 564.26 51.84 551.00 55.00 C 537.74 58.16 522.40 56.62 509.00 61.00 C 495.60 65.38 480.51 59.56 467.75 67.75 C 454.98 75.93 463.40 86.41 472.75 95.25 C 482.11 104.09 491.31 109.48 479.00 120.00 Z"/>
</g>
<g fill="#8B8B8B" fill-opacity="1.00" stroke="None">
<path d="
M 469.00 130.00 
C 472.55 126.97 475.68 123.32 479.00 120.00
C 475.45 123.03 472.32 126.68 469.00 130.00 Z"/>
</g>
<g fill="#8E8E8E" fill-opacity="1.00" stroke="None">
<path d="
M 233.00 170.00 
C 237.96 165.76 242.37 160.63 247.00 156.00
C 242.04 160.24 237.64 165.36 233.00 170.00 Z"/>
</g>
<g fill="#A9A9A9" fill-opacity="1.00" stroke="None">
<path d="
M 327.00 195.00 
C 324.27 191.81 320.99 188.99 318.00 186.00
C 320.73 189.19 324.01 192.01 327.00 195.00 Z"/>
</g>
<g fill="#757575" fill-opacity="1.00" stroke="None">
<path d="
M 295.00 224.00 
C 291.06 219.39 286.31 215.31 282.00 211.00
C 285.94 215.61 290.69 219.69 295.00 224.00 Z"/>
</g>
<g fill="#9C9C9C" fill-opacity="1.00" stroke="None">
<path d="
M 356.00 225.00 
C 351.76 220.04 346.64 215.64 342.00 211.00
C 346.24 215.96 351.37 220.37 356.00 225.00 Z"/>
</g>
<g fill="#3D3D3D" fill-opacity="1.00" stroke="None">
<path d="
M 529.00 219.00 
C 531.33 219.05 533.67 218.96 536.00 219.00
C 528.07 220.65 516.85 220.68 509.00 219.00
C 507.67 219.00 506.33 219.00 505.00 219.00
C 501.70 220.21 492.06 219.97 487.25 226.25 C 482.43 232.52 482.77 240.48 483.00 249.00 C 483.23 257.52 482.89 268.13 483.00 277.00 C 483.11 285.87 482.95 294.97 483.00 304.00 C 483.05 313.03 482.97 322.90 483.00 332.00 C 483.03 341.10 482.98 349.89 483.00 359.00 C 483.02 368.11 482.97 377.93 483.00 387.00 C 483.03 396.07 482.94 405.04 483.00 414.00 C 483.06 422.96 482.87 433.27 483.00 442.00 C 483.13 450.73 482.71 460.84 483.00 469.00 C 483.29 477.16 486.23 483.14 493.70 486.31 C 501.16 489.47 510.61 487.69 519.00 488.00 C 527.39 488.31 538.74 487.87 547.00 488.00 C 555.26 488.13 562.24 488.26 567.75 481.75 C 573.27 475.25 571.90 466.55 572.00 458.00 C 572.10 449.45 572.01 439.88 572.00 431.00 C 571.99 422.12 572.11 411.99 572.00 403.00 C 571.89 394.01 572.29 384.99 572.00 376.00 C 571.71 367.01 572.21 357.20 573.00 349.00
C 573.00 333.54 572.90 315.17 573.00 300.00 C 573.10 284.83 572.72 265.11 573.00 251.00 C 573.28 236.89 574.24 220.16 558.00 218.00
C 552.89 217.81 545.24 218.51 540.00 218.00
C 536.25 218.00 532.08 218.70 529.00 219.00 Z"/>
</g>
<g fill="#141414" fill-opacity="1.00" stroke="None">
<path d="
M 558.00 218.00 
C 552.23 217.23 545.82 218.00 540.00 218.00
C 545.24 218.51 552.89 217.81 558.00 218.00 Z"/>
</g>
<g fill="#202020" fill-opacity="1.00" stroke="None">
<path d="
M 573.00 349.00 
C 572.21 357.20 571.71 367.01 572.00 376.00 C 572.29 384.99 571.89 394.01 572.00 403.00 C 572.11 411.99 571.99 422.12 572.00 431.00 C 572.01 439.88 572.10 449.45 572.00 458.00 C 571.90 466.55 573.27 475.25 567.75 481.75 C 562.24 488.26 555.26 488.13 547.00 488.00 C 538.74 487.87 527.39 488.31 519.00 488.00 C 510.61 487.69 501.16 489.47 493.70 486.31 C 486.23 483.14 483.29 477.16 483.00 469.00 C 482.71 460.84 483.13 450.73 483.00 442.00 C 482.87 433.27 483.06 422.96 483.00 414.00 C 482.94 405.04 483.03 396.07 483.00 387.00 C 482.97 377.93 483.02 368.11 483.00 359.00 C 482.98 349.89 483.03 341.10 483.00 332.00 C 482.97 322.90 483.05 313.03 483.00 304.00 C 482.95 294.97 483.11 285.87 483.00 277.00 C 482.89 268.13 483.23 257.52 483.00 249.00 C 482.77 240.48 482.43 232.52 487.25 226.25 C 492.06 219.97 501.70 220.21 505.00 219.00
C 482.45 219.00 480.57 235.72 482.00 255.00 C 483.43 274.28 481.00 293.93 482.00 313.00 C 483.00 332.07 480.75 352.33 482.00 371.00 C 483.25 389.67 479.67 411.16 482.00 429.00 C 484.33 446.84 475.01 469.13 486.75 483.25 C 498.49 497.37 522.36 484.70 539.00 489.00 C 555.64 493.30 575.34 484.61 573.00 465.00 C 570.66 445.39 573.88 426.48 573.00 407.00 C 572.12 387.52 573.00 368.44 573.00 349.00 Z"/>
</g>
<g fill="#151515" fill-opacity="1.00" stroke="None">
<path d="
M 529.00 219.00 
C 522.34 218.87 515.66 219.00 509.00 219.00
C 516.85 220.68 528.07 220.65 536.00 219.00
C 533.67 218.96 531.33 219.05 529.00 219.00 Z"/>
</g>
<g fill="#8A8A8A" fill-opacity="1.00" stroke="None">
<path d="
M 148.00 254.00 
C 151.90 250.67 155.35 246.65 159.00 243.00
C 155.10 246.33 151.65 250.35 148.00 254.00 Z"/>
</g>
<g fill="#949494" fill-opacity="1.00" stroke="None">
<path d="
M 326.00 256.00 
C 321.79 251.79 317.25 247.25 313.00 243.00
C 316.94 247.61 321.69 251.69 326.00 256.00 Z"/>
</g>
<g fill="#9F9F9F" fill-opacity="1.00" stroke="None">
<path d="
M 189.00 274.00 
C 199.64 264.91 209.09 253.91 219.00 244.00
C 208.36 253.09 198.91 264.09 189.00 274.00 Z"/>
</g>
<g fill="#6A6A6A" fill-opacity="1.00" stroke="None">
<path d="
M 336.00 266.00 
C 332.97 262.45 329.32 259.32 326.00 256.00
C 329.21 259.21 332.75 262.75 336.00 266.00 Z"/>
</g>
<g fill="#9A9A9A" fill-opacity="1.00" stroke="None">
<path d="
M 121.00 281.00 
C 123.78 278.00 127.26 275.21 130.00 272.00
C 127.05 274.95 123.66 277.63 121.00 281.00 Z"/>
</g>
<g fill="#828282" fill-opacity="1.00" stroke="None">
<path d="
M 280.00 307.00 
C 285.72 307.00 292.03 306.48 297.00 306.00
C 291.28 306.00 285.04 306.51 280.00 307.00 Z"/>
</g>
<g fill="#1E1E1E" fill-opacity="1.00" stroke="None">
<path d="
M 280.00 307.00 
C 269.33 307.00 258.67 307.00 248.00 307.00
C 256.88 310.78 269.19 306.22 279.00 308.00 C 288.81 309.78 301.09 306.03 310.00 307.00
C 305.89 305.63 301.44 306.00 297.00 306.00
C 292.03 306.48 285.72 307.00 280.00 307.00 Z"/>
</g>
<g fill="#1D1D1D" fill-opacity="1.00" stroke="None">
<path d="
M 234.00 321.00 
C 233.05 331.47 234.00 342.48 234.00 353.00
C 234.00 367.06 233.71 382.03 234.00 396.00 C 234.29 409.97 233.22 425.36 234.00 439.00 C 234.78 452.64 231.30 467.75 236.03 479.97 C 240.75 492.19 258.59 490.24 270.00 489.00 C 281.41 487.76 301.35 492.87 312.00 488.00
C 303.12 484.63 291.87 489.42 281.00 488.00 C 270.13 486.58 259.35 489.04 247.93 487.07 C 236.50 485.11 236.03 475.64 236.00 465.00 C 235.97 454.36 234.53 443.19 235.00 432.00 C 235.47 420.81 235.13 409.37 235.00 398.00 C 234.87 386.63 235.82 375.57 235.00 364.00 C 234.18 352.43 237.05 341.92 235.00 330.00 C 232.95 318.08 239.68 313.71 246.00 307.00
C 238.55 309.93 235.61 313.23 234.00 321.00 Z"/>
</g>
<g fill="#3D3D3D" fill-opacity="1.00" stroke="None">
<path d="
M 312.00 488.00 
C 312.34 487.84 312.77 487.29 313.00 487.00
C 323.87 473.09 320.03 454.48 320.00 436.00 C 319.97 417.52 320.93 396.67 320.00 378.00 C 319.07 359.33 322.01 338.77 321.00 321.00
C 320.07 314.92 316.00 309.00 310.00 307.00
C 301.09 306.03 288.81 309.78 279.00 308.00 C 269.19 306.22 256.88 310.78 248.00 307.00
C 247.50 307.00 246.43 306.83 246.00 307.00
C 239.68 313.71 232.95 318.08 235.00 330.00 C 237.05 341.92 234.18 352.43 235.00 364.00 C 235.82 375.57 234.87 386.63 235.00 398.00 C 235.13 409.37 235.47 420.81 235.00 432.00 C 234.53 443.19 235.97 454.36 236.00 465.00 C 236.03 475.64 236.50 485.11 247.93 487.07 C 259.35 489.04 270.13 486.58 281.00 488.00 C 291.87 489.42 303.12 484.63 312.00 488.00 Z"/>
</g>
<g fill="#9C9C9C" fill-opacity="1.00" stroke="None">
<path d="
M 234.00 353.00 
C 234.00 342.48 233.05 331.47 234.00 321.00
C 231.99 330.69 233.06 343.24 234.00 353.00 Z"/>
</g>
<g fill="#181818" fill-opacity="1.00" stroke="None">
<path d="
M 313.00 487.00 
C 318.42 485.07 319.66 482.42 321.00 477.00
C 323.16 459.61 321.00 440.54 321.00 423.00
C 321.00 406.18 321.95 388.76 321.00 372.00 C 320.05 355.24 323.52 337.54 321.00 321.00
C 322.01 338.77 319.07 359.33 320.00 378.00 C 320.93 396.67 319.97 417.52 320.00 436.00 C 320.03 454.48 323.87 473.09 313.00 487.00 Z"/>
</g>
<g fill="#3D3D3D" fill-opacity="1.00" stroke="None">
<path d="
M 373.00 489.00 
C 388.49 489.09 403.52 485.64 420.00 488.00 C 436.48 490.36 446.91 480.39 445.00 464.00 C 443.09 447.61 445.94 431.74 445.00 416.00 C 444.06 400.26 445.63 381.85 445.00 367.00 C 444.37 352.15 448.65 335.78 433.00 330.00
C 418.93 326.51 400.13 329.00 385.00 329.00
C 381.87 329.30 376.91 328.98 374.00 329.00
C 351.37 331.32 357.13 359.71 357.00 377.00 C 356.87 394.29 356.61 424.04 357.00 441.00 C 357.39 457.96 351.14 486.76 373.00 489.00 Z"/>
</g>
<g fill="#191919" fill-opacity="1.00" stroke="None">
<path d="
M 385.00 329.00 
C 381.40 329.00 377.58 328.63 374.00 329.00
C 376.91 328.98 381.87 329.30 385.00 329.00 Z"/>
</g>
<g fill="#191919" fill-opacity="1.00" stroke="None">
<path d="
M 373.00 489.00 
C 387.34 490.47 403.84 487.50 418.00 489.00 C 432.16 490.50 445.15 487.72 446.00 472.00
C 446.93 454.78 446.00 437.25 446.00 420.00
C 446.00 404.15 446.22 383.36 446.00 368.00 C 445.78 352.64 450.29 334.28 433.00 330.00
C 448.65 335.78 444.37 352.15 445.00 367.00 C 445.63 381.85 444.06 400.26 445.00 416.00 C 445.94 431.74 443.09 447.61 445.00 464.00 C 446.91 480.39 436.48 490.36 420.00 488.00 C 403.52 485.64 388.49 489.09 373.00 489.00 Z"/>
</g>
<g fill="#1C1C1C" fill-opacity="1.00" stroke="None">
<path d="
M 157.00 371.00 
C 173.87 372.30 198.37 368.54 197.00 391.00 C 195.63 413.46 196.92 430.52 197.00 451.00 C 197.08 471.48 198.44 490.70 173.00 487.00
C 174.64 489.59 179.43 486.34 181.00 489.00
C 203.16 487.05 197.54 464.28 198.00 446.00 C 198.46 427.72 197.38 407.69 198.00 387.00 C 198.62 366.31 172.23 370.70 157.00 371.00 Z"/>
</g>
<g fill="#3D3D3D" fill-opacity="1.00" stroke="None">
<path d="
M 150.00 372.00 
C 150.98 372.12 152.01 371.90 153.00 372.00
C 149.07 373.60 141.86 373.70 138.00 372.00
C 137.00 372.00 136.00 372.03 135.00 372.00
C 129.08 375.02 115.40 372.38 112.70 382.70 C 109.99 393.01 110.80 404.16 111.00 415.00 C 111.20 425.84 110.18 437.38 111.00 448.00 C 111.82 458.62 108.21 470.64 112.92 480.08 C 117.64 489.51 128.49 488.25 138.00 488.00 C 147.51 487.75 161.91 488.12 171.00 489.00
C 174.29 489.00 177.73 489.29 181.00 489.00
C 179.43 486.34 174.64 489.59 173.00 487.00
C 198.44 490.70 197.08 471.48 197.00 451.00 C 196.92 430.52 195.63 413.46 197.00 391.00 C 198.37 368.54 173.87 372.30 157.00 371.00
C 154.59 371.05 151.75 371.83 150.00 372.00 Z"/>
</g>
<g fill="#222222" fill-opacity="1.00" stroke="None">
<path d="
M 110.00 389.00 
C 108.51 416.43 108.51 445.57 110.00 473.00
C 111.34 497.68 153.88 489.00 171.00 489.00
C 161.91 488.12 147.51 487.75 138.00 488.00 C 128.49 488.25 117.64 489.51 112.92 480.08 C 108.21 470.64 111.82 458.62 111.00 448.00 C 110.18 437.38 111.20 425.84 111.00 415.00 C 110.80 404.16 109.99 393.01 112.70 382.70 C 115.40 372.38 129.08 375.02 135.00 372.00
C 122.41 371.67 110.77 374.72 110.00 389.00 Z"/>
</g>
<g fill="#0F0F0F" fill-opacity="1.00" stroke="None">
<path d="
M 150.00 372.00 
C 146.08 372.38 141.94 372.00 138.00 372.00
C 141.86 373.70 149.07 373.60 153.00 372.00
C 152.01 371.90 150.98 372.12 150.00 372.00 Z"/>
</g>
<g fill="#848484" fill-opacity="1.00" stroke="None">
<path d="
M 110.00 473.00 
C 108.51 445.57 108.51 416.43 110.00 389.00
C 107.90 401.92 109.00 417.24 109.00 431.00 C 109.00 444.76 107.89 460.01 110.00 473.00 Z"/>
</g>
<g fill="#747474" fill-opacity="1.00" stroke="None">
<path d="
M 446.00 472.00 
C 448.57 456.20 447.54 435.92 446.00 420.00
C 446.00 437.25 446.93 454.78 446.00 472.00 Z"/>
</g>
<g fill="#767676" fill-opacity="1.00" stroke="None">
<path d="
M 321.00 477.00 
C 324.83 461.55 322.52 438.73 321.00 423.00
C 321.00 440.54 323.16 459.61 321.00 477.00 Z"/>
</g>
</svg>