<svg xmlns="http://www.w3.org/2000/svg" xmlns:v="https://svgstorm.com"
viewBox = "0 0 1000 1000"
width="1000"
height="1000">
<g fill="None" fill-opacity="0.0" stroke="#FEFEFE" stroke-opacity="1.00" stroke-width="0.3"><path d="
M 507.00 183.00 
C 518.65 184.66 529.81 191.26 538.75 199.25 C 547.70 207.24 557.78 214.91 569.67 216.33 C 581.56 217.75 599.63 215.25 610.07 210.07 C 620.52 204.90 642.84 210.64 639.67 223.67 C 636.50 236.70 627.63 243.15 622.23 254.23 C 616.83 265.31 611.14 274.57 604.68 284.68 C 598.22 294.79 596.00 306.18 586.70 314.70 C 577.40 323.22 555.68 316.22 542.00 318.00 C 528.32 319.78 507.53 316.89 493.00 318.00 C 478.47 319.11 459.31 316.82 445.00 318.00 C 430.69 319.18 413.74 319.84 408.08 306.92 C 402.42 294.00 395.62 288.05 390.25 276.75 C 384.88 265.46 377.55 256.74 372.70 246.30 C 367.85 235.87 354.30 225.32 363.25 214.25 C 372.21 203.19 388.52 209.37 400.07 212.93 C 411.62 216.48 428.75 219.02 440.23 213.23 C 451.71 207.44 458.08 201.04 468.23 193.23 C 478.38 185.42 493.65 181.09 507.00 183.00
M 586.00 346.00 
C 601.75 351.32 612.46 368.56 625.75 379.25 C 639.04 389.94 649.91 404.56 661.75 417.25 C 673.59 429.93 683.35 444.79 693.77 459.23 C 704.19 473.67 713.04 487.77 721.77 504.23 C 730.51 520.69 736.82 538.57 742.98 557.02 C 749.13 575.48 754.00 599.39 754.00 620.00
C 754.49 625.04 754.48 631.03 754.00 636.00
C 754.00 744.29 633.60 811.00 537.00 811.00
C 534.58 811.23 531.09 812.00 528.00 812.00
C 525.33 812.00 522.67 812.00 520.00 812.00
C 506.81 813.28 491.12 813.27 478.00 812.00
C 457.18 812.00 433.15 808.33 413.93 804.07 C 394.71 799.82 376.44 794.36 359.31 786.70 C 342.17 779.03 327.79 771.73 313.25 760.75 C 298.72 749.76 287.12 739.62 276.25 724.75 C 265.37 709.88 257.88 695.06 252.07 676.93 C 246.26 658.79 244.43 632.68 246.00 613.00 C 247.57 593.32 251.74 570.88 257.98 552.98 C 264.21 535.07 271.56 518.10 279.92 501.92 C 288.28 485.75 297.14 471.45 307.30 457.30 C 317.47 443.15 327.24 429.24 338.77 416.77 C 350.30 404.30 360.59 390.23 373.75 379.75 C 386.91 369.27 397.59 351.69 413.00 346.00
C 425.33 341.45 441.25 346.13 455.00 345.00 C 468.75 343.87 484.96 345.04 499.00 345.00 C 513.04 344.96 529.10 343.97 543.00 345.00 C 556.90 346.03 573.41 341.75 586.00 346.00 Z"/>
</g>
<g fill="None" fill-opacity="0.0" stroke="#242424" stroke-opacity="1.00" stroke-width="0.3"><path d="
M 507.00 183.00 
C 493.65 181.09 478.38 185.42 468.23 193.23 C 458.08 201.04 451.71 207.44 440.23 213.23 C 428.75 219.02 411.62 216.48 400.07 212.93 C 388.52 209.37 372.21 203.19 363.25 214.25 C 354.30 225.32 367.85 235.87 372.70 246.30 C 377.55 256.74 384.88 265.46 390.25 276.75 C 395.62 288.05 402.42 294.00 408.08 306.92 C 413.74 319.84 430.69 319.18 445.00 318.00 C 459.31 316.82 478.47 319.11 493.00 318.00 C 507.53 316.89 528.32 319.78 542.00 318.00 C 555.68 316.22 577.40 323.22 586.70 314.70 C 596.00 306.18 598.22 294.79 604.68 284.68 C 611.14 274.57 616.83 265.31 622.23 254.23 C 627.63 243.15 636.50 236.70 639.67 223.67 C 642.84 210.64 620.52 204.90 610.07 210.07 C 599.63 215.25 581.56 217.75 569.67 216.33 C 557.78 214.91 547.70 207.24 538.75 199.25 C 529.81 191.26 518.65 184.66 507.00 183.00 Z"/>
</g>
<g fill="None" fill-opacity="0.0" stroke="#999999" stroke-opacity="1.00" stroke-width="0.3"><path d="
M 413.00 346.00 
C 426.59 342.99 442.03 347.14 456.00 346.00 C 469.97 344.86 484.88 346.04 499.00 346.00 C 513.12 345.96 527.88 344.96 542.00 346.00 C 556.12 347.04 572.12 343.27 586.00 346.00
C 573.41 341.75 556.90 346.03 543.00 345.00 C 529.10 343.97 513.04 344.96 499.00 345.00 C 484.96 345.04 468.75 343.87 455.00 345.00 C 441.25 346.13 425.33 341.45 413.00 346.00 Z"/>
</g>
<g fill="None" fill-opacity="0.0" stroke="#232323" stroke-opacity="1.00" stroke-width="0.3"><path d="
M 478.00 812.00 
C 492.00 812.00 506.00 812.00 520.00 812.00
C 522.67 812.00 525.33 812.00 528.00 812.00
C 530.42 811.77 533.90 811.00 537.00 811.00
C 633.60 811.00 754.00 744.29 754.00 636.00
C 754.00 630.67 754.00 625.33 754.00 620.00
C 754.00 599.39 749.13 575.48 742.98 557.02 C 736.82 538.57 730.51 520.69 721.77 504.23 C 713.04 487.77 704.19 473.67 693.77 459.23 C 683.35 444.79 673.59 429.93 661.75 417.25 C 649.91 404.56 639.04 389.94 625.75 379.25 C 612.46 368.56 601.75 351.32 586.00 346.00
C 572.12 343.27 556.12 347.04 542.00 346.00 C 527.88 344.96 513.12 345.96 499.00 346.00 C 484.88 346.04 469.97 344.86 456.00 346.00 C 442.03 347.14 426.59 342.99 413.00 346.00
C 397.59 351.69 386.91 369.27 373.75 379.75 C 360.59 390.23 350.30 404.30 338.77 416.77 C 327.24 429.24 317.47 443.15 307.30 457.30 C 297.14 471.45 288.28 485.75 279.92 501.92 C 271.56 518.10 264.21 535.07 257.98 552.98 C 251.74 570.88 247.57 593.32 246.00 613.00 C 244.43 632.68 246.26 658.79 252.07 676.93 C 257.88 695.06 265.37 709.88 276.25 724.75 C 287.12 739.62 298.72 749.76 313.25 760.75 C 327.79 771.73 342.17 779.03 359.31 786.70 C 376.44 794.36 394.71 799.82 413.93 804.07 C 433.15 808.33 457.18 812.00 478.00 812.00
M 515.00 424.00 
C 516.35 428.26 514.11 435.83 516.00 440.00
C 520.71 447.08 535.26 443.69 542.22 449.78 C 549.19 455.86 556.72 456.20 562.30 465.70 C 567.88 475.20 570.36 478.03 572.99 491.01 C 575.62 503.99 564.40 503.84 552.00 504.00 C 539.60 504.16 536.97 496.84 533.23 486.77 C 529.49 476.70 520.88 474.84 511.98 472.02 C 503.07 469.21 489.87 469.92 481.31 473.31 C 472.75 476.70 465.73 483.37 463.08 492.08 C 460.42 500.78 462.19 513.52 469.75 519.25 C 477.31 524.98 485.53 527.58 494.22 530.78 C 502.92 533.97 513.38 535.62 522.02 538.98 C 530.66 542.34 540.52 544.08 548.68 548.32 C 556.84 552.57 562.86 556.56 569.25 563.75 C 575.63 570.94 578.10 579.47 580.00 589.00 C 581.89 598.53 580.99 611.91 578.07 621.07 C 575.16 630.24 569.62 636.50 563.75 643.75 C 557.89 651.01 548.28 652.99 541.92 657.92 C 535.57 662.86 517.52 659.89 516.03 668.03 C 514.53 676.17 515.80 691.63 503.98 691.98 C 492.15 692.32 480.91 690.65 483.00 677.00 C 485.09 663.35 473.13 663.25 463.32 660.68 C 453.52 658.11 447.07 653.71 439.75 648.25 C 432.43 642.79 427.26 635.20 424.08 627.92 C 420.89 620.65 413.28 605.96 423.00 602.00
C 429.04 599.54 445.02 599.57 451.00 602.00
C 461.52 606.28 459.12 627.58 473.70 631.31 C 488.27 635.03 503.61 640.09 518.68 634.68 C 533.75 629.26 540.29 620.57 541.00 605.00 C 541.71 589.43 530.37 580.16 516.93 576.07 C 503.49 571.99 490.03 567.85 476.93 564.07 C 463.82 560.29 451.31 555.95 440.77 547.23 C 430.23 538.51 423.51 525.27 423.00 512.00
C 422.49 508.40 422.66 504.49 423.00 501.00
C 423.00 490.98 425.89 480.25 430.92 471.92 C 435.96 463.60 441.33 457.79 449.70 452.70 C 458.07 447.61 466.81 443.78 477.02 442.02 C 487.24 440.27 479.54 421.12 489.25 416.25 C 498.96 411.37 511.67 413.47 515.00 424.00 Z"/>
</g>
<g fill="None" fill-opacity="0.0" stroke="#FCFCFC" stroke-opacity="1.00" stroke-width="0.3"><path d="
M 423.00 501.00 
C 423.00 504.66 422.86 508.35 423.00 512.00
C 423.51 525.27 430.23 538.51 440.77 547.23 C 451.31 555.95 463.82 560.29 476.93 564.07 C 490.03 567.85 503.49 571.99 516.93 576.07 C 530.37 580.16 541.71 589.43 541.00 605.00 C 540.29 620.57 533.75 629.26 518.68 634.68 C 503.61 640.09 488.27 635.03 473.70 631.31 C 459.12 627.58 461.52 606.28 451.00 602.00
C 444.53 600.37 429.47 600.37 423.00 602.00
C 413.28 605.96 420.89 620.65 424.08 627.92 C 427.26 635.20 432.43 642.79 439.75 648.25 C 447.07 653.71 453.52 658.11 463.32 660.68 C 473.13 663.25 485.09 663.35 483.00 677.00 C 480.91 690.65 492.15 692.32 503.98 691.98 C 515.80 691.63 514.53 676.17 516.03 668.03 C 517.52 659.89 535.57 662.86 541.92 657.92 C 548.28 652.99 557.89 651.01 563.75 643.75 C 569.62 636.50 575.16 630.24 578.07 621.07 C 580.99 611.91 581.89 598.53 580.00 589.00 C 578.10 579.47 575.63 570.94 569.25 563.75 C 562.86 556.56 556.84 552.57 548.68 548.32 C 540.52 544.08 530.66 542.34 522.02 538.98 C 513.38 535.62 502.92 533.97 494.22 530.78 C 485.53 527.58 477.31 524.98 469.75 519.25 C 462.19 513.52 460.42 500.78 463.08 492.08 C 465.73 483.37 472.75 476.70 481.31 473.31 C 489.87 469.92 503.07 469.21 511.98 472.02 C 520.88 474.84 529.49 476.70 533.23 486.77 C 536.97 496.84 539.60 504.16 552.00 504.00 C 564.40 503.84 575.62 503.99 572.99 491.01 C 570.36 478.03 567.88 475.20 562.30 465.70 C 556.72 456.20 549.19 455.86 542.22 449.78 C 535.26 443.69 520.71 447.08 516.00 440.00
C 513.30 435.94 515.88 428.92 515.00 424.00
C 511.67 413.47 498.96 411.37 489.25 416.25 C 479.54 421.12 487.24 440.27 477.02 442.02 C 466.81 443.78 458.07 447.61 449.70 452.70 C 441.33 457.79 435.96 463.60 430.92 471.92 C 425.89 480.25 423.00 490.98 423.00 501.00 Z"/>
</g>
<g fill="None" fill-opacity="0.0" stroke="#9E9E9E" stroke-opacity="1.00" stroke-width="0.3"><path d="
M 516.00 440.00 
C 514.11 435.83 516.35 428.26 515.00 424.00
C 515.88 428.92 513.30 435.94 516.00 440.00 Z"/>
</g>
<g fill="None" fill-opacity="0.0" stroke="#7B7B7B" stroke-opacity="1.00" stroke-width="0.3"><path d="
M 423.00 512.00 
C 422.86 508.35 423.00 504.66 423.00 501.00
C 422.66 504.49 422.49 508.40 423.00 512.00 Z"/>
</g>
<g fill="None" fill-opacity="0.0" stroke="#888888" stroke-opacity="1.00" stroke-width="0.3"><path d="
M 423.00 602.00 
C 429.47 600.37 444.53 600.37 451.00 602.00
C 445.02 599.57 429.04 599.54 423.00 602.00 Z"/>
</g>
<g fill="None" fill-opacity="0.0" stroke="#868686" stroke-opacity="1.00" stroke-width="0.3"><path d="
M 754.00 636.00 
C 754.48 631.03 754.49 625.04 754.00 620.00
C 754.00 625.33 754.00 630.67 754.00 636.00 Z"/>
</g>
<g fill="None" fill-opacity="0.0" stroke="#7A7A7A" stroke-opacity="1.00" stroke-width="0.3"><path d="
M 528.00 812.00 
C 531.09 812.00 534.58 811.23 537.00 811.00
C 533.90 811.00 530.42 811.77 528.00 812.00 Z"/>
</g>
<g fill="None" fill-opacity="0.0" stroke="#808080" stroke-opacity="1.00" stroke-width="0.3"><path d="
M 520.00 812.00 
C 506.00 812.00 492.00 812.00 478.00 812.00
C 491.12 813.27 506.81 813.28 520.00 812.00 Z"/>
</g>
<g fill="#FEFEFE" fill-opacity="1.00" stroke="None">
<path d="
M 507.00 183.00 
C 518.65 184.66 529.81 191.26 538.75 199.25 C 547.70 207.24 557.78 214.91 569.67 216.33 C 581.56 217.75 599.63 215.25 610.07 210.07 C 620.52 204.90 642.84 210.64 639.67 223.67 C 636.50 236.70 627.63 243.15 622.23 254.23 C 616.83 265.31 611.14 274.57 604.68 284.68 C 598.22 294.79 596.00 306.18 586.70 314.70 C 577.40 323.22 555.68 316.22 542.00 318.00 C 528.32 319.78 507.53 316.89 493.00 318.00 C 478.47 319.11 459.31 316.82 445.00 318.00 C 430.69 319.18 413.74 319.84 408.08 306.92 C 402.42 294.00 395.62 288.05 390.25 276.75 C 384.88 265.46 377.55 256.74 372.70 246.30 C 367.85 235.87 354.30 225.32 363.25 214.25 C 372.21 203.19 388.52 209.37 400.07 212.93 C 411.62 216.48 428.75 219.02 440.23 213.23 C 451.71 207.44 458.08 201.04 468.23 193.23 C 478.38 185.42 493.65 181.09 507.00 183.00
M 586.00 346.00 
C 601.75 351.32 612.46 368.56 625.75 379.25 C 639.04 389.94 649.91 404.56 661.75 417.25 C 673.59 429.93 683.35 444.79 693.77 459.23 C 704.19 473.67 713.04 487.77 721.77 504.23 C 730.51 520.69 736.82 538.57 742.98 557.02 C 749.13 575.48 754.00 599.39 754.00 620.00
C 754.49 625.04 754.48 631.03 754.00 636.00
C 754.00 744.29 633.60 811.00 537.00 811.00
C 534.58 811.23 531.09 812.00 528.00 812.00
C 525.33 812.00 522.67 812.00 520.00 812.00
C 506.81 813.28 491.12 813.27 478.00 812.00
C 457.18 812.00 433.15 808.33 413.93 804.07 C 394.71 799.82 376.44 794.36 359.31 786.70 C 342.17 779.03 327.79 771.73 313.25 760.75 C 298.72 749.76 287.12 739.62 276.25 724.75 C 265.37 709.88 257.88 695.06 252.07 676.93 C 246.26 658.79 244.43 632.68 246.00 613.00 C 247.57 593.32 251.74 570.88 257.98 552.98 C 264.21 535.07 271.56 518.10 279.92 501.92 C 288.28 485.75 297.14 471.45 307.30 457.30 C 317.47 443.15 327.24 429.24 338.77 416.77 C 350.30 404.30 360.59 390.23 373.75 379.75 C 386.91 369.27 397.59 351.69 413.00 346.00
C 425.33 341.45 441.25 346.13 455.00 345.00 C 468.75 343.87 484.96 345.04 499.00 345.00 C 513.04 344.96 529.10 343.97 543.00 345.00 C 556.90 346.03 573.41 341.75 586.00 346.00 Z"/>
</g>
<g fill="#242424" fill-opacity="1.00" stroke="None">
<path d="
M 507.00 183.00 
C 493.65 181.09 478.38 185.42 468.23 193.23 C 458.08 201.04 451.71 207.44 440.23 213.23 C 428.75 219.02 411.62 216.48 400.07 212.93 C 388.52 209.37 372.21 203.19 363.25 214.25 C 354.30 225.32 367.85 235.87 372.70 246.30 C 377.55 256.74 384.88 265.46 390.25 276.75 C 395.62 288.05 402.42 294.00 408.08 306.92 C 413.74 319.84 430.69 319.18 445.00 318.00 C 459.31 316.82 478.47 319.11 493.00 318.00 C 507.53 316.89 528.32 319.78 542.00 318.00 C 555.68 316.22 577.40 323.22 586.70 314.70 C 596.00 306.18 598.22 294.79 604.68 284.68 C 611.14 274.57 616.83 265.31 622.23 254.23 C 627.63 243.15 636.50 236.70 639.67 223.67 C 642.84 210.64 620.52 204.90 610.07 210.07 C 599.63 215.25 581.56 217.75 569.67 216.33 C 557.78 214.91 547.70 207.24 538.75 199.25 C 529.81 191.26 518.65 184.66 507.00 183.00 Z"/>
</g>
<g fill="#999999" fill-opacity="1.00" stroke="None">
<path d="
M 413.00 346.00 
C 426.59 342.99 442.03 347.14 456.00 346.00 C 469.97 344.86 484.88 346.04 499.00 346.00 C 513.12 345.96 527.88 344.96 542.00 346.00 C 556.12 347.04 572.12 343.27 586.00 346.00
C 573.41 341.75 556.90 346.03 543.00 345.00 C 529.10 343.97 513.04 344.96 499.00 345.00 C 484.96 345.04 468.75 343.87 455.00 345.00 C 441.25 346.13 425.33 341.45 413.00 346.00 Z"/>
</g>
<g fill="#232323" fill-opacity="1.00" stroke="None">
<path d="
M 478.00 812.00 
C 492.00 812.00 506.00 812.00 520.00 812.00
C 522.67 812.00 525.33 812.00 528.00 812.00
C 530.42 811.77 533.90 811.00 537.00 811.00
C 633.60 811.00 754.00 744.29 754.00 636.00
C 754.00 630.67 754.00 625.33 754.00 620.00
C 754.00 599.39 749.13 575.48 742.98 557.02 C 736.82 538.57 730.51 520.69 721.77 504.23 C 713.04 487.77 704.19 473.67 693.77 459.23 C 683.35 444.79 673.59 429.93 661.75 417.25 C 649.91 404.56 639.04 389.94 625.75 379.25 C 612.46 368.56 601.75 351.32 586.00 346.00
C 572.12 343.27 556.12 347.04 542.00 346.00 C 527.88 344.96 513.12 345.96 499.00 346.00 C 484.88 346.04 469.97 344.86 456.00 346.00 C 442.03 347.14 426.59 342.99 413.00 346.00
C 397.59 351.69 386.91 369.27 373.75 379.75 C 360.59 390.23 350.30 404.30 338.77 416.77 C 327.24 429.24 317.47 443.15 307.30 457.30 C 297.14 471.45 288.28 485.75 279.92 501.92 C 271.56 518.10 264.21 535.07 257.98 552.98 C 251.74 570.88 247.57 593.32 246.00 613.00 C 244.43 632.68 246.26 658.79 252.07 676.93 C 257.88 695.06 265.37 709.88 276.25 724.75 C 287.12 739.62 298.72 749.76 313.25 760.75 C 327.79 771.73 342.17 779.03 359.31 786.70 C 376.44 794.36 394.71 799.82 413.93 804.07 C 433.15 808.33 457.18 812.00 478.00 812.00
M 515.00 424.00 
C 516.35 428.26 514.11 435.83 516.00 440.00
C 520.71 447.08 535.26 443.69 542.22 449.78 C 549.19 455.86 556.72 456.20 562.30 465.70 C 567.88 475.20 570.36 478.03 572.99 491.01 C 575.62 503.99 564.40 503.84 552.00 504.00 C 539.60 504.16 536.97 496.84 533.23 486.77 C 529.49 476.70 520.88 474.84 511.98 472.02 C 503.07 469.21 489.87 469.92 481.31 473.31 C 472.75 476.70 465.73 483.37 463.08 492.08 C 460.42 500.78 462.19 513.52 469.75 519.25 C 477.31 524.98 485.53 527.58 494.22 530.78 C 502.92 533.97 513.38 535.62 522.02 538.98 C 530.66 542.34 540.52 544.08 548.68 548.32 C 556.84 552.57 562.86 556.56 569.25 563.75 C 575.63 570.94 578.10 579.47 580.00 589.00 C 581.89 598.53 580.99 611.91 578.07 621.07 C 575.16 630.24 569.62 636.50 563.75 643.75 C 557.89 651.01 548.28 652.99 541.92 657.92 C 535.57 662.86 517.52 659.89 516.03 668.03 C 514.53 676.17 515.80 691.63 503.98 691.98 C 492.15 692.32 480.91 690.65 483.00 677.00 C 485.09 663.35 473.13 663.25 463.32 660.68 C 453.52 658.11 447.07 653.71 439.75 648.25 C 432.43 642.79 427.26 635.20 424.08 627.92 C 420.89 620.65 413.28 605.96 423.00 602.00
C 429.04 599.54 445.02 599.57 451.00 602.00
C 461.52 606.28 459.12 627.58 473.70 631.31 C 488.27 635.03 503.61 640.09 518.68 634.68 C 533.75 629.26 540.29 620.57 541.00 605.00 C 541.71 589.43 530.37 580.16 516.93 576.07 C 503.49 571.99 490.03 567.85 476.93 564.07 C 463.82 560.29 451.31 555.95 440.77 547.23 C 430.23 538.51 423.51 525.27 423.00 512.00
C 422.49 508.40 422.66 504.49 423.00 501.00
C 423.00 490.98 425.89 480.25 430.92 471.92 C 435.96 463.60 441.33 457.79 449.70 452.70 C 458.07 447.61 466.81 443.78 477.02 442.02 C 487.24 440.27 479.54 421.12 489.25 416.25 C 498.96 411.37 511.67 413.47 515.00 424.00 Z"/>
</g>
<g fill="#FCFCFC" fill-opacity="1.00" stroke="None">
<path d="
M 423.00 501.00 
C 423.00 504.66 422.86 508.35 423.00 512.00
C 423.51 525.27 430.23 538.51 440.77 547.23 C 451.31 555.95 463.82 560.29 476.93 564.07 C 490.03 567.85 503.49 571.99 516.93 576.07 C 530.37 580.16 541.71 589.43 541.00 605.00 C 540.29 620.57 533.75 629.26 518.68 634.68 C 503.61 640.09 488.27 635.03 473.70 631.31 C 459.12 627.58 461.52 606.28 451.00 602.00
C 444.53 600.37 429.47 600.37 423.00 602.00
C 413.28 605.96 420.89 620.65 424.08 627.92 C 427.26 635.20 432.43 642.79 439.75 648.25 C 447.07 653.71 453.52 658.11 463.32 660.68 C 473.13 663.25 485.09 663.35 483.00 677.00 C 480.91 690.65 492.15 692.32 503.98 691.98 C 515.80 691.63 514.53 676.17 516.03 668.03 C 517.52 659.89 535.57 662.86 541.92 657.92 C 548.28 652.99 557.89 651.01 563.75 643.75 C 569.62 636.50 575.16 630.24 578.07 621.07 C 580.99 611.91 581.89 598.53 580.00 589.00 C 578.10 579.47 575.63 570.94 569.25 563.75 C 562.86 556.56 556.84 552.57 548.68 548.32 C 540.52 544.08 530.66 542.34 522.02 538.98 C 513.38 535.62 502.92 533.97 494.22 530.78 C 485.53 527.58 477.31 524.98 469.75 519.25 C 462.19 513.52 460.42 500.78 463.08 492.08 C 465.73 483.37 472.75 476.70 481.31 473.31 C 489.87 469.92 503.07 469.21 511.98 472.02 C 520.88 474.84 529.49 476.70 533.23 486.77 C 536.97 496.84 539.60 504.16 552.00 504.00 C 564.40 503.84 575.62 503.99 572.99 491.01 C 570.36 478.03 567.88 475.20 562.30 465.70 C 556.72 456.20 549.19 455.86 542.22 449.78 C 535.26 443.69 520.71 447.08 516.00 440.00
C 513.30 435.94 515.88 428.92 515.00 424.00
C 511.67 413.47 498.96 411.37 489.25 416.25 C 479.54 421.12 487.24 440.27 477.02 442.02 C 466.81 443.78 458.07 447.61 449.70 452.70 C 441.33 457.79 435.96 463.60 430.92 471.92 C 425.89 480.25 423.00 490.98 423.00 501.00 Z"/>
</g>
<g fill="#9E9E9E" fill-opacity="1.00" stroke="None">
<path d="
M 516.00 440.00 
C 514.11 435.83 516.35 428.26 515.00 424.00
C 515.88 428.92 513.30 435.94 516.00 440.00 Z"/>
</g>
<g fill="#7B7B7B" fill-opacity="1.00" stroke="None">
<path d="
M 423.00 512.00 
C 422.86 508.35 423.00 504.66 423.00 501.00
C 422.66 504.49 422.49 508.40 423.00 512.00 Z"/>
</g>
<g fill="#888888" fill-opacity="1.00" stroke="None">
<path d="
M 423.00 602.00 
C 429.47 600.37 444.53 600.37 451.00 602.00
C 445.02 599.57 429.04 599.54 423.00 602.00 Z"/>
</g>
<g fill="#868686" fill-opacity="1.00" stroke="None">
<path d="
M 754.00 636.00 
C 754.48 631.03 754.49 625.04 754.00 620.00
C 754.00 625.33 754.00 630.67 754.00 636.00 Z"/>
</g>
<g fill="#7A7A7A" fill-opacity="1.00" stroke="None">
<path d="
M 528.00 812.00 
C 531.09 812.00 534.58 811.23 537.00 811.00
C 533.90 811.00 530.42 811.77 528.00 812.00 Z"/>
</g>
<g fill="#808080" fill-opacity="1.00" stroke="None">
<path d="
M 520.00 812.00 
C 506.00 812.00 492.00 812.00 478.00 812.00
C 491.12 813.27 506.81 813.28 520.00 812.00 Z"/>
</g>
</svg>