<svg width="374" height="252" viewBox="0 0 374 252" fill="none" xmlns="http://www.w3.org/2000/svg">
<path fill-rule="evenodd" clip-rule="evenodd" d="M269.434 27.6039C254.175 42.8699 241.691 55.6949 241.691 56.1039C241.691 56.5119 255.209 56.8469 271.731 56.8469C305.2 56.8469 306.313 57.0439 312.164 63.9969C315.85 68.3779 316.898 71.3949 316.875 77.5639C316.842 86.4909 310.695 94.2649 301.611 96.8699C299.578 97.4529 275.919 97.8469 242.932 97.8469H187.659L187.925 125.597L188.191 153.347L245.191 153.847C302.074 154.346 302.2 154.352 306.44 156.617C320.435 164.093 320.292 184.881 306.191 192.686C303.465 194.195 293.517 194.393 197.191 194.847L91.191 195.347L90.925 223.597L90.66 251.847L195.425 251.827C259.259 251.815 302.87 251.42 307.047 250.816C323.885 248.382 338.774 240.929 350.774 228.93C377.1 202.604 381.083 162.472 360.437 131.568L356.577 125.788L361 119.068C378.295 92.7939 377.626 58.0979 359.331 32.5009C347.787 16.3489 330.914 5.61489 310.483 1.42689C297.162 -1.30411 300.377 -3.35412 269.434 27.6039Z" fill="url(#paint0_linear_2_22)"/>
<path d="M0 56.5435C0 56.1345 12.484 43.3095 27.743 28.0435L55.487 0.286499H146.712C219.296 0.286499 237.833 0.541499 237.429 1.5365C237.15 2.2245 224.675 15.0485 209.708 30.0365L182.494 57.2865H164.747H147V105.786V154.286H119H91V105.786V57.2865H45.5C20.475 57.2865 0 56.9515 0 56.5435Z" fill="#0F172A"/>
<defs>
<linearGradient id="paint0_linear_2_22" x1="-2.50003" y1="-4.71347" x2="345" y2="270.787" gradientUnits="userSpaceOnUse">
<stop stop-color="#00D88C"/>
<stop offset="1" stop-color="#FFB900"/>
</linearGradient>
</defs>
</svg>
