<svg width="374" height="252" viewBox="0 0 374 252" fill="none" xmlns="http://www.w3.org/2000/svg">
<path fill-rule="evenodd" clip-rule="evenodd" d="M27.743 27.757C12.484 43.023 0 55.848 0 56.257C0 56.665 20.475 57 45.5 57H91V105.5V154H119H147V105.5V57H164.747H182.494L209.708 29.75C224.675 14.762 237.15 1.938 237.429 1.25C237.833 0.255 219.296 0 146.712 0H55.487L27.743 27.757ZM269.743 27.757C254.484 43.023 242 55.848 242 56.257C242 56.665 255.518 57 272.04 57C305.509 57 306.622 57.197 312.473 64.15C316.159 68.531 317.207 71.548 317.184 77.717C317.151 86.644 311.004 94.418 301.92 97.023C299.887 97.606 276.228 98 243.241 98H187.968L188.234 125.75L188.5 153.5L245.5 154C302.383 154.499 302.509 154.505 306.749 156.77C320.744 164.246 320.601 185.034 306.5 192.839C303.774 194.348 293.826 194.546 197.5 195L91.5 195.5L91.234 223.75L90.969 252L195.734 251.98C259.568 251.968 303.179 251.573 307.356 250.969C324.194 248.535 339.083 241.082 351.083 229.083C377.409 202.757 381.392 162.625 360.746 131.721L356.886 125.941L361.309 119.221C378.604 92.947 377.935 58.251 359.64 32.654C348.096 16.502 331.223 5.768 310.792 1.58C297.471 -1.151 300.686 -3.201 269.743 27.757Z" fill="url(#paint0_linear_2_14)"/>
<defs>
<linearGradient id="paint0_linear_2_14" x1="34.5" y1="-9" x2="382" y2="266.5" gradientUnits="userSpaceOnUse">
<stop stop-color="#00D88C"/>
<stop offset="1" stop-color="#FFB900"/>
</linearGradient>
</defs>
</svg>
